<svg width="500" height="500" viewBox="0 0 500 500" fill="none" xmlns="http://www.w3.org/2000/svg">
<rect width="500" height="500" fill="white"/>
<g clip-path="url(#clip0_255_2)">
<path d="M140.987 103.759C130.078 110.546 119.672 122.539 119.672 122.539C119.426 122.821 119.295 123.197 119.306 123.584C119.317 123.97 119.471 124.336 119.733 124.601C119.994 124.866 120.343 125.008 120.702 124.996C121.061 124.984 121.401 124.82 121.647 124.538C121.647 124.538 131.992 112.727 142.344 106.287C142.655 106.093 142.882 105.774 142.974 105.4C143.067 105.027 143.018 104.628 142.838 104.293C142.749 104.127 142.631 103.982 142.49 103.865C142.349 103.748 142.188 103.663 142.016 103.613C141.844 103.564 141.664 103.551 141.488 103.576C141.312 103.601 141.142 103.663 140.987 103.759Z" fill="black"/>
<path d="M140.718 160.56C140.718 160.56 138.183 163.137 136.982 165.287C136.797 165.619 136.741 166.016 136.828 166.391C136.915 166.767 137.137 167.09 137.444 167.289C137.597 167.388 137.766 167.454 137.942 167.482C138.118 167.511 138.297 167.502 138.47 167.456C138.643 167.41 138.805 167.327 138.948 167.213C139.092 167.1 139.213 166.957 139.304 166.792C140.069 165.423 142.613 162.645 142.613 162.645C142.87 162.374 143.017 162.005 143.021 161.618C143.024 161.231 142.885 160.858 142.634 160.581C142.383 160.305 142.039 160.147 141.68 160.143C141.321 160.14 140.975 160.289 140.718 160.56Z" fill="black"/>
<path d="M155.953 187.501C155.594 187.483 155.243 187.619 154.977 187.879C154.977 187.879 154.064 188.774 153.016 189.868C151.968 190.962 150.817 192.185 150.147 193.179C150.043 193.335 149.967 193.511 149.926 193.697C149.884 193.884 149.877 194.077 149.905 194.266C149.933 194.456 149.996 194.637 150.089 194.801C150.182 194.964 150.304 195.106 150.448 195.219C150.739 195.446 151.102 195.54 151.456 195.479C151.811 195.418 152.129 195.208 152.34 194.895C152.715 194.338 153.888 193.022 154.902 191.964C155.915 190.906 156.801 190.037 156.801 190.037C157.067 189.777 157.225 189.413 157.242 189.027C157.259 188.641 157.133 188.263 156.892 187.977C156.772 187.835 156.627 187.72 156.466 187.638C156.305 187.557 156.131 187.51 155.953 187.501Z" fill="black"/>
<path d="M143.023 237.392L140.747 239.653C140.483 239.916 140.326 240.28 140.312 240.667C140.297 241.054 140.426 241.431 140.67 241.715C140.913 242 141.252 242.168 141.611 242.184C141.97 242.2 142.32 242.061 142.584 241.799L144.86 239.54C145.124 239.277 145.281 238.913 145.296 238.526C145.311 238.139 145.182 237.762 144.939 237.477C144.818 237.336 144.673 237.222 144.511 237.141C144.35 237.06 144.175 237.015 143.997 237.007C143.819 236.999 143.641 237.029 143.474 237.095C143.307 237.161 143.154 237.262 143.023 237.392Z" fill="black"/>
<path d="M149.318 268.868C149.318 268.868 147.695 270.295 145.945 271.986C145.069 272.831 144.16 273.743 143.389 274.597C142.618 275.451 141.997 276.16 141.595 277.011C141.515 277.182 141.466 277.368 141.452 277.56C141.438 277.751 141.46 277.943 141.515 278.125C141.57 278.307 141.658 278.476 141.774 278.622C141.89 278.768 142.031 278.887 142.19 278.974C142.348 279.061 142.521 279.113 142.699 279.128C142.876 279.143 143.055 279.12 143.224 279.061C143.393 279.001 143.55 278.906 143.685 278.782C143.82 278.657 143.931 278.505 144.012 278.334C144.09 278.167 144.631 277.409 145.332 276.633C146.033 275.858 146.906 274.977 147.753 274.159C149.448 272.522 151.032 271.131 151.032 271.131C151.17 271.009 151.284 270.86 151.368 270.691C151.453 270.522 151.505 270.337 151.523 270.146C151.541 269.956 151.524 269.763 151.472 269.58C151.421 269.396 151.336 269.225 151.224 269.077C150.997 268.777 150.668 268.587 150.311 268.548C149.954 268.509 149.597 268.624 149.318 268.868Z" fill="black"/>
<path d="M62.9927 374.959C57.6551 377.294 50.627 382.137 50.627 382.137C50.3242 382.344 50.1103 382.673 50.0324 383.051C49.9544 383.428 50.0186 383.823 50.2111 384.15C50.3065 384.312 50.4306 384.452 50.5762 384.562C50.7218 384.672 50.8862 384.75 51.0599 384.792C51.2337 384.834 51.4133 384.838 51.5887 384.805C51.764 384.772 51.9315 384.702 52.0817 384.599C52.0817 384.599 59.1291 379.799 64.012 377.663C64.3448 377.518 64.6103 377.236 64.7501 376.879C64.89 376.523 64.8926 376.121 64.7575 375.762C64.6223 375.404 64.3604 375.118 64.0295 374.967C63.6985 374.817 63.3256 374.814 62.9927 374.959Z" fill="black"/>
<path d="M92.0584 397.683C92.0584 397.683 85.5359 400.488 77.9565 404.64C70.3772 408.792 61.7434 414.198 57.2567 419.915C57.0251 420.21 56.9118 420.593 56.9419 420.978C56.9719 421.364 57.1429 421.721 57.417 421.971C57.5528 422.094 57.71 422.188 57.8795 422.247C58.049 422.305 58.2275 422.327 58.4049 422.311C58.5823 422.295 58.755 422.242 58.9132 422.154C59.0714 422.066 59.212 421.946 59.327 421.799C63.2258 416.832 71.7254 411.328 79.1845 407.242C86.6436 403.156 93.064 400.394 93.064 400.394C93.3977 400.25 93.6647 399.97 93.8065 399.614C93.9483 399.259 93.9532 398.857 93.8201 398.497C93.7542 398.319 93.6563 398.157 93.5321 398.02C93.4078 397.882 93.2596 397.772 93.096 397.697C92.9323 397.621 92.7565 397.581 92.5785 397.579C92.4004 397.576 92.2237 397.612 92.0584 397.683Z" fill="black"/>
<path d="M98.2299 424.953C97.9489 424.712 97.5906 424.601 97.2335 424.644C96.8765 424.688 96.55 424.882 96.326 425.185L92.4621 430.405C92.2382 430.708 92.135 431.094 92.1753 431.479C92.2156 431.863 92.396 432.215 92.6769 432.456C92.9579 432.697 93.3163 432.809 93.6734 432.765C94.0304 432.722 94.3568 432.527 94.5808 432.225L98.4446 427.004C98.6686 426.701 98.7718 426.315 98.7315 425.931C98.6912 425.546 98.5108 425.195 98.2299 424.953Z" fill="black"/>
<path d="M209.835 388.457C209.661 388.415 209.481 388.41 209.306 388.443C209.13 388.476 208.963 388.546 208.812 388.649L205.933 390.617C205.783 390.719 205.653 390.853 205.55 391.01C205.448 391.167 205.375 391.344 205.336 391.531C205.297 391.718 205.293 391.911 205.323 392.1C205.354 392.289 205.419 392.47 205.514 392.632C205.61 392.794 205.734 392.934 205.879 393.044C206.025 393.154 206.189 393.232 206.363 393.274C206.537 393.316 206.716 393.32 206.892 393.287C207.067 393.254 207.235 393.184 207.385 393.081L210.264 391.114C210.415 391.011 210.545 390.877 210.647 390.721C210.75 390.564 210.823 390.387 210.861 390.2C210.9 390.012 210.904 389.819 210.874 389.63C210.843 389.441 210.779 389.26 210.683 389.099C210.491 388.772 210.185 388.541 209.835 388.457Z" fill="black"/>
<path d="M239.104 403.44L217.263 416.409C216.948 416.596 216.715 416.91 216.616 417.282C216.516 417.654 216.557 418.053 216.731 418.392C216.904 418.731 217.195 418.982 217.541 419.089C217.886 419.197 218.256 419.152 218.571 418.965L240.413 405.997C240.568 405.905 240.706 405.78 240.817 405.63C240.928 405.48 241.011 405.308 241.061 405.124C241.11 404.94 241.125 404.747 241.105 404.556C241.085 404.366 241.031 404.181 240.945 404.013C240.771 403.674 240.48 403.424 240.135 403.316C239.79 403.209 239.419 403.253 239.104 403.44Z" fill="black"/>
<path d="M237.97 456.345C237.611 456.331 237.262 456.472 236.999 456.736L232.284 461.474C232.022 461.738 231.867 462.104 231.855 462.49C231.842 462.877 231.973 463.253 232.218 463.536C232.463 463.819 232.802 463.986 233.161 463.999C233.52 464.013 233.869 463.872 234.132 463.608L238.847 458.871C239.11 458.607 239.265 458.242 239.278 457.855C239.291 457.469 239.16 457.092 238.916 456.809C238.794 456.668 238.648 456.555 238.486 456.475C238.324 456.396 238.148 456.351 237.97 456.345Z" fill="black"/>
<path d="M223.999 127.044C223.824 127.007 223.644 127.007 223.47 127.044C223.295 127.081 223.129 127.155 222.981 127.261C222.682 127.476 222.474 127.809 222.404 128.189C222.333 128.568 222.405 128.962 222.604 129.284C225.198 133.481 230.121 135.235 237.134 134.054C237.31 134.024 237.479 133.958 237.631 133.858C237.783 133.758 237.915 133.627 238.02 133.472C238.125 133.317 238.2 133.141 238.242 132.955C238.284 132.769 238.291 132.575 238.264 132.386C238.208 132.003 238.013 131.661 237.723 131.433C237.433 131.205 237.07 131.111 236.715 131.171C230.256 132.258 226.802 130.81 224.859 127.667C224.66 127.345 224.351 127.121 223.999 127.044Z" fill="black"/>
<path d="M235.666 101.13C235.493 101.177 235.331 101.259 235.188 101.374C235.045 101.488 234.924 101.632 234.833 101.797C234.742 101.961 234.682 102.143 234.656 102.333C234.63 102.523 234.639 102.716 234.683 102.902C235.719 107.336 237.42 110.78 239.85 113.138C242.279 115.497 245.407 116.69 248.976 116.766C249.154 116.77 249.331 116.736 249.497 116.666C249.663 116.596 249.814 116.492 249.943 116.359C250.071 116.226 250.174 116.068 250.245 115.892C250.317 115.716 250.355 115.527 250.359 115.336C250.362 115.144 250.331 114.953 250.266 114.775C250.201 114.596 250.104 114.433 249.981 114.295C249.858 114.157 249.71 114.046 249.547 113.969C249.384 113.892 249.209 113.851 249.031 113.847C245.973 113.781 243.587 112.834 241.665 110.969C239.743 109.103 238.255 106.236 237.309 102.189C237.222 101.813 236.999 101.491 236.691 101.293C236.383 101.094 236.014 101.035 235.666 101.13Z" fill="black"/>
<path d="M228.27 90.5522C227.132 90.6855 226.418 91.6164 225.973 92.5695C225.527 93.5226 225.242 94.6775 225.039 96.0394C224.633 98.7633 224.598 102.308 224.988 106.176C225.378 110.044 226.12 113.497 227.06 116.063C227.529 117.347 228.038 118.41 228.664 119.238C229.289 120.066 230.171 120.81 231.31 120.676C232.448 120.543 233.161 119.612 233.607 118.659C234.052 117.706 234.338 116.549 234.54 115.187C234.946 112.464 234.982 108.92 234.592 105.052C234.201 101.184 233.459 97.7298 232.52 95.1636C232.05 93.8804 231.541 92.8185 230.916 91.9907C230.291 91.163 229.408 90.419 228.27 90.5522ZM228.561 93.4347C228.379 93.456 228.485 93.3672 228.828 93.8213C229.171 94.275 229.61 95.1202 230.016 96.2285C230.827 98.4452 231.547 101.711 231.916 105.365C232.284 109.02 232.233 112.376 231.882 114.729C231.707 115.905 231.447 116.832 231.203 117.354C230.958 117.877 230.837 117.813 231.019 117.792C231.201 117.771 231.096 117.861 230.753 117.407C230.41 116.953 229.971 116.108 229.566 115C228.754 112.783 228.033 109.518 227.664 105.863C227.295 102.209 227.348 98.8525 227.699 96.4998C227.874 95.3235 228.134 94.3963 228.378 93.8739C228.623 93.3514 228.743 93.4134 228.561 93.4347Z" fill="black"/>
<path d="M238.115 88.9795C237.228 89.0834 236.63 89.7544 236.273 90.3983C235.917 91.042 235.698 91.7744 235.526 92.6201C235.184 94.3119 235.069 96.4664 235.18 98.8883C235.189 99.0788 235.232 99.2656 235.308 99.4381C235.383 99.6105 235.49 99.7652 235.621 99.8934C235.752 100.021 235.905 100.12 236.072 100.185C236.239 100.249 236.416 100.277 236.593 100.268C236.769 100.259 236.943 100.212 237.103 100.13C237.263 100.048 237.406 99.9334 237.525 99.792C237.644 99.6505 237.736 99.4854 237.795 99.3057C237.855 99.1261 237.881 98.9354 237.872 98.745C237.77 96.5147 237.896 94.5465 238.161 93.2408C238.251 92.7941 238.355 92.5714 238.454 92.3139C238.665 92.6458 238.909 93.0714 239.157 93.7506C239.754 95.3803 240.294 97.8207 240.57 100.55C240.845 103.279 240.804 105.787 240.547 107.517C240.436 108.265 240.276 108.772 240.131 109.142C240.108 109.107 240.097 109.097 240.073 109.056C239.878 108.733 239.572 108.508 239.222 108.428C238.872 108.348 238.508 108.421 238.208 108.631C237.909 108.841 237.699 109.171 237.625 109.547C237.551 109.924 237.619 110.317 237.813 110.639C237.978 110.911 238.149 111.172 238.361 111.42C238.363 111.423 238.366 111.425 238.369 111.428C238.85 111.988 239.584 112.526 240.483 112.422C241.505 112.302 242.115 111.476 242.476 110.703C242.836 109.931 243.055 109.03 243.211 107.98C243.523 105.879 243.549 103.182 243.252 100.239C242.955 97.2961 242.393 94.6683 241.668 92.6888C241.306 91.699 240.913 90.8705 240.407 90.1997C239.901 89.5289 239.14 88.8632 238.118 88.9829L238.115 88.9795Z" fill="black"/>
<path d="M247.368 37.0081C243.972 36.9706 240.924 38.6929 238.292 41.4356C235.66 44.1788 233.359 47.9579 231.226 52.3625C230.075 54.7314 228.463 57.6773 225.943 59.5022C223.423 61.3273 219.993 62.2195 214.529 60.214C208.72 58.0822 203.982 56.7232 199.824 56.3893C195.665 56.0554 192.054 56.7938 188.796 58.8327C185.68 60.7749 179.316 65.9996 179.1 77.0279C175.652 76.6424 164.426 76.1114 158.3 85.4121C157.61 86.4623 154.431 90.9301 152.765 98.0103C151.1 105.091 150.885 114.925 155.675 126.994C156.538 129.162 159.358 135.381 164.55 140.816C169.742 146.25 177.434 150.872 187.595 149.374C190.896 148.888 193.376 147.05 195.025 144.818C196.674 142.586 197.546 139.988 197.858 137.735C198.016 136.588 198.103 135.666 197.481 134.748C197.17 134.289 196.643 133.981 196.203 133.893C195.764 133.805 195.401 133.856 195.066 133.925C193.727 134.204 192.476 134.896 191.228 135.043C188.953 135.317 186.642 134.219 184.722 132.389C182.802 130.559 181.353 128.016 180.854 125.908C180.158 122.973 179.858 119.796 180.235 117.616C180.424 116.526 180.771 115.72 181.193 115.238C181.614 114.756 182.093 114.492 183.003 114.492C185.611 114.492 188.036 115.873 189.988 117.567C191.939 119.261 193.375 121.234 193.964 122.122C194.977 123.641 196.798 124.307 198.449 123.593C199.274 123.236 200.005 122.473 200.392 121.461C200.78 120.448 200.863 119.228 200.654 117.791C200.227 114.865 198.596 110.904 198.234 107.207C198.053 105.359 198.184 103.662 198.8 102.268C199.415 100.875 200.494 99.6827 202.614 98.7824C207.82 96.577 214.99 93.1089 221.998 90.8299C229.005 88.551 235.791 87.6075 239.982 89.8119C241.491 90.606 243.169 91.0453 245.02 90.755C246.872 90.4646 248.838 89.5081 251.177 87.7773C253.59 85.9889 257.786 82.006 261.329 76.9237C264.871 71.8413 267.803 65.639 267.028 59.4158C265.56 47.6353 257.428 37.1018 247.372 37L247.368 37.0081ZM247.34 39.9272C255.603 40.0098 263.017 49.2261 264.337 59.8133C264.956 64.7825 262.484 70.4055 259.157 75.1791C255.83 79.9527 251.691 83.8568 249.636 85.3795C247.5 86.9598 245.897 87.6754 244.624 87.875C243.352 88.0746 242.351 87.8208 241.166 87.1974C235.748 84.3477 228.455 85.6867 221.21 88.0428C213.965 90.3989 206.708 93.9186 201.617 96.0751C198.995 97.1888 197.261 98.9567 196.348 101.022C195.436 103.088 195.322 105.351 195.535 107.523C195.961 111.869 197.672 116.19 197.973 118.252C198.127 119.312 198.022 119.989 197.882 120.356C197.741 120.723 197.603 120.819 197.436 120.892C197.1 121.037 196.433 120.834 196.161 120.426C195.472 119.387 193.92 117.241 191.682 115.298C189.442 113.354 186.475 111.578 182.997 111.578C181.475 111.578 180.125 112.2 179.214 113.241C178.304 114.282 177.816 115.635 177.565 117.087C177.063 119.99 177.463 123.43 178.222 126.634C178.892 129.463 180.598 132.365 182.923 134.58C185.246 136.794 188.27 138.339 191.521 137.949C193.176 137.754 194.51 137.15 195.229 136.918C195.24 137.063 195.229 136.902 195.175 137.308C194.929 139.084 194.195 141.257 192.904 143.005C191.612 144.753 189.818 146.104 187.227 146.486C177.977 147.849 171.233 143.746 166.436 138.726C161.64 133.706 158.918 127.739 158.164 125.846C153.594 114.33 153.857 105.251 155.391 98.7287C156.925 92.2077 159.665 88.3857 160.51 87.0997C166.552 77.9281 180.183 80.0675 180.183 80.0675C180.381 80.1012 180.583 80.0871 180.776 80.0262C180.968 79.9654 181.145 79.8594 181.295 79.7157C181.445 79.572 181.563 79.3943 181.641 79.1954C181.72 78.9966 181.756 78.7815 181.748 78.5657C181.329 67.5248 187.218 63.1875 190.154 61.3575C192.92 59.6266 195.856 58.9998 199.618 59.3018C203.38 59.6039 207.938 60.8816 213.65 62.9783C219.707 65.2012 224.271 64.2293 227.451 61.926C230.632 59.6228 232.428 56.1761 233.623 53.7162C235.678 49.472 237.873 45.9334 240.172 43.5369C242.472 41.1404 244.793 39.9019 247.336 39.9305L247.34 39.9272Z" fill="black"/>
<path fill-rule="evenodd" clip-rule="evenodd" d="M197.22 109.618L185.714 113.446C184.847 113.188 183.934 113.037 182.997 113.037C178.134 113.037 178.08 120.135 179.536 126.273C180.705 131.211 185.846 137.166 191.374 136.498C194.487 136.131 197.073 133.496 196.515 137.524C195.958 141.553 193.302 147.065 187.41 147.933C167.999 150.793 158.537 130.485 156.919 126.423C147.558 102.837 157.871 88.5925 159.404 86.2572C166.04 76.1823 180.395 78.6259 180.395 78.6259C179.954 66.9913 186.373 62.0289 189.477 60.094C195.501 56.3243 202.57 57.3668 214.092 61.5953C225.613 65.8238 230.08 57.8672 232.427 53.0383C236.615 44.3895 241.416 38.4013 247.355 38.468C256.514 38.5598 264.288 48.4344 265.682 59.6186C267.075 70.8111 254.873 83.2714 250.405 86.5824C245.93 89.8935 243.266 89.9269 240.572 88.5091C230.963 83.4549 212.411 93.0711 202.113 97.433C196.492 99.8266 196.291 104.864 197.22 109.618Z" fill="black"/>
<path d="M225.677 98.6162L185.315 112.052C185.145 112.108 184.987 112.2 184.849 112.323C184.712 112.445 184.599 112.595 184.516 112.765C184.433 112.934 184.382 113.12 184.365 113.311C184.348 113.502 184.367 113.695 184.42 113.878C184.472 114.061 184.558 114.231 184.671 114.378C184.785 114.526 184.925 114.648 185.082 114.737C185.24 114.827 185.412 114.882 185.589 114.899C185.766 114.917 185.945 114.897 186.115 114.84L226.477 101.405C226.647 101.348 226.805 101.256 226.942 101.134C227.08 101.012 227.193 100.861 227.276 100.692C227.359 100.522 227.41 100.337 227.427 100.146C227.443 99.9546 227.425 99.7621 227.372 99.5789C227.32 99.3958 227.234 99.2257 227.121 99.0782C227.007 98.9307 226.867 98.8086 226.71 98.7192C226.552 98.6298 226.38 98.5748 226.203 98.5571C226.026 98.5394 225.847 98.5595 225.677 98.6162Z" fill="black"/>
<path d="M194.528 141.513C194.35 141.522 194.175 141.57 194.015 141.652C193.854 141.734 193.709 141.849 193.59 141.992C193.349 142.279 193.224 142.657 193.242 143.044C193.26 143.43 193.42 143.793 193.687 144.052C193.687 144.052 194.912 145.225 195.905 147.794C196.898 150.363 197.594 154.217 196.196 159.537C196.098 159.909 196.141 160.308 196.317 160.646C196.492 160.984 196.784 161.233 197.13 161.339C197.476 161.444 197.846 161.397 198.16 161.208C198.474 161.02 198.705 160.704 198.803 160.332C200.362 154.401 199.605 149.772 198.407 146.672C197.208 143.571 195.504 141.887 195.504 141.887C195.238 141.628 194.886 141.493 194.528 141.513Z" fill="black"/>
<path d="M242.698 120.747C242.36 120.879 242.084 121.15 241.932 121.5C241.779 121.85 241.762 122.252 241.884 122.616C244.454 130.282 241.694 140.393 235.295 146.913C228.897 153.433 219.09 156.483 207.166 150.143C206.843 149.972 206.471 149.945 206.131 150.07C205.791 150.194 205.51 150.459 205.351 150.806C205.272 150.978 205.226 151.165 205.214 151.356C205.202 151.547 205.226 151.739 205.283 151.921C205.34 152.102 205.43 152.27 205.547 152.414C205.664 152.558 205.807 152.676 205.966 152.761C218.749 159.557 230.036 156.289 237.157 149.034C244.277 141.778 247.46 130.654 244.432 121.623C244.31 121.26 244.059 120.963 243.733 120.798C243.408 120.634 243.036 120.616 242.698 120.747Z" fill="black"/>
<path d="M202.474 180.576C191.368 180.468 186.042 191.311 186.042 191.311C185.874 191.653 185.839 192.053 185.945 192.423C186.051 192.793 186.289 193.103 186.606 193.284C186.924 193.465 187.295 193.502 187.639 193.388C187.982 193.274 188.27 193.018 188.438 192.676C188.438 192.676 192.992 183.404 202.449 183.495C209.194 183.565 221.279 187.838 233.603 196.959C235.574 198.417 239.919 201.712 244.732 204.528C249.544 207.344 254.763 209.818 259.119 209.239C266.273 208.296 275.214 209.316 275.214 209.316C275.293 209.326 275.372 209.329 275.452 209.324C275.452 209.324 276.821 209.098 278.266 211.022C279.701 212.933 281.146 217.398 279.766 227.251C279.637 227.356 279.328 227.542 278.886 227.722C278 228.082 276.597 228.446 274.865 228.759C271.401 229.385 266.6 229.845 261.389 230.181C255.845 230.543 247.061 233.008 235.41 230.641C223.759 228.273 209.308 221.104 192.988 201.839C192.868 201.698 192.723 201.583 192.562 201.502C192.401 201.42 192.227 201.374 192.049 201.365C191.871 201.356 191.694 201.385 191.526 201.45C191.359 201.515 191.205 201.616 191.074 201.745C190.942 201.874 190.835 202.03 190.76 202.203C190.684 202.377 190.641 202.565 190.633 202.756C190.625 202.948 190.652 203.139 190.712 203.319C190.773 203.5 190.866 203.665 190.986 203.807C207.619 223.441 222.672 231.023 234.906 233.509C247.14 235.995 256.621 233.417 261.552 233.095C266.81 232.756 271.664 232.298 275.315 231.638C277.141 231.307 278.66 230.936 279.846 230.453C280.44 230.212 280.953 229.948 281.408 229.575C281.864 229.203 282.319 228.653 282.431 227.875C283.921 217.454 282.524 212.049 280.374 209.186C278.224 206.323 275.27 206.413 275.27 206.413L275.508 206.422C275.508 206.422 266.44 205.34 258.79 206.348C255.744 206.753 250.661 204.681 246.028 201.97C241.394 199.259 237.149 196.046 235.141 194.56C222.471 185.183 210.213 180.664 202.479 180.584L202.474 180.576Z" fill="black"/>
<path d="M208.253 166.888C207.897 166.833 207.536 166.933 207.248 167.165C206.961 167.396 206.771 167.742 206.719 168.125C206.694 168.314 206.703 168.508 206.747 168.694C206.791 168.879 206.869 169.054 206.975 169.208C207.082 169.361 207.215 169.49 207.369 169.588C207.522 169.686 207.691 169.751 207.867 169.778C207.867 169.778 210.645 170.234 212.985 172.344C215.325 174.453 217.332 178.003 215.611 185.295C215.568 185.481 215.558 185.674 215.584 185.864C215.609 186.054 215.669 186.236 215.76 186.401C215.851 186.566 215.971 186.709 216.114 186.824C216.257 186.939 216.419 187.022 216.591 187.069C216.94 187.165 217.308 187.107 217.617 186.909C217.926 186.712 218.15 186.39 218.238 186.015C220.149 177.92 217.724 172.809 214.724 170.104C211.723 167.399 208.253 166.888 208.253 166.888Z" fill="black"/>
<path d="M201.363 163.718C182.584 169.478 170.874 192.273 165.777 201.922C158.904 214.933 155.892 228.831 154.976 240.863C154.06 252.896 155.216 263.026 156.822 268.769C158.434 274.541 161.425 277.918 165.081 279.117C168.736 280.317 172.804 279.425 176.759 277.559C197.982 267.552 209.226 253.011 212.998 248.122C215.123 245.364 215.911 242.018 215.905 238.93C215.897 235.842 215.136 232.99 213.981 230.938C213.202 229.553 212.658 226.931 212.412 224.73C212.165 222.53 212.158 220.762 212.158 220.762C212.157 220.571 212.121 220.381 212.052 220.204C211.983 220.027 211.883 219.867 211.756 219.732C211.63 219.597 211.48 219.49 211.315 219.418C211.151 219.345 210.975 219.308 210.797 219.309C210.437 219.311 210.093 219.466 209.84 219.741C209.587 220.016 209.446 220.388 209.448 220.775C209.448 220.775 209.455 222.702 209.721 225.081C209.988 227.459 210.454 230.301 211.665 232.452C212.5 233.936 213.19 236.384 213.195 238.936C213.203 241.489 212.56 244.121 210.913 246.258C207.143 251.144 196.336 265.142 175.671 274.885C172.061 276.589 168.608 277.224 165.87 276.325C163.132 275.427 160.857 273.084 159.418 267.93C157.966 262.739 156.788 252.8 157.678 241.104C158.569 229.409 161.502 215.922 168.133 203.37C173.24 193.703 184.883 171.811 202.107 166.528C202.453 166.422 202.745 166.173 202.919 165.834C203.094 165.496 203.137 165.097 203.039 164.725C202.94 164.353 202.708 164.038 202.394 163.85C202.081 163.662 201.71 163.616 201.365 163.722L201.363 163.718Z" fill="black"/>
<path d="M210.878 248.565C210.878 248.565 233.356 237.456 246.998 235.455C260.633 233.461 320.756 233.47 330.791 233.703C340.833 233.928 343.04 237.723 343.179 242.911C343.318 248.107 341.22 258.182 334.376 265.329C332.873 266.897 327.33 268.715 317.132 269.541C306.935 270.367 278.341 271.801 271.45 272.835C264.551 273.869 260.719 282.143 257.738 286.655C253.905 292.485 239.488 311.484 209.415 314.303C195.741 315.579 175.045 314.403 165.397 277.689C168.611 278.782 172.405 278.023 176.214 276.221C195.439 267.156 206.31 254.378 210.878 248.565Z" fill="black"/>
<path d="M330.818 232.245C325.742 232.127 308.231 232.066 290.229 232.284C272.227 232.502 253.896 232.974 246.815 234.009C232.706 236.079 210.313 247.239 210.313 247.239C210.132 247.328 209.972 247.459 209.844 247.622C205.328 253.368 194.64 265.939 175.671 274.884C172.037 276.603 168.556 277.231 165.807 276.296C165.574 276.217 165.325 276.207 165.087 276.268C164.849 276.328 164.631 276.457 164.456 276.64C164.28 276.824 164.154 277.055 164.09 277.309C164.027 277.563 164.028 277.831 164.095 278.085C168.987 296.701 176.807 306.593 185.251 311.524C193.696 316.455 202.603 316.402 209.534 315.756C240.089 312.891 254.884 293.521 258.842 287.5C261.959 282.783 265.647 275.18 271.635 274.283C274.911 273.791 283.849 273.16 293.128 272.569C302.408 271.978 312.096 271.413 317.231 270.997C322.385 270.58 326.384 269.913 329.335 269.132C332.286 268.351 334.155 267.591 335.316 266.379C342.518 258.858 344.682 248.543 344.53 242.87C344.455 240.064 343.745 237.272 341.559 235.323C339.372 233.375 335.994 232.363 330.817 232.246L330.818 232.245ZM330.761 235.162C335.626 235.271 338.371 236.269 339.833 237.571C341.295 238.874 341.759 240.572 341.823 242.953C341.95 247.672 339.917 257.507 333.43 264.281C333.089 264.637 331.434 265.57 328.689 266.296C325.944 267.023 322.073 267.676 317.03 268.085C311.967 268.495 302.259 269.062 292.97 269.653C283.681 270.245 274.876 270.847 271.261 271.39C263.453 272.56 259.477 281.502 256.632 285.809C252.923 291.451 238.884 310.073 209.298 312.846C202.555 313.475 194.275 313.474 186.541 308.958C179.15 304.642 172.134 296.086 167.374 279.546C170.4 279.862 173.612 279.044 176.757 277.557C195.991 268.486 206.951 255.771 211.674 249.79C212.071 249.596 234.12 238.817 247.178 236.9C253.733 235.942 272.282 235.421 290.258 235.203C308.235 234.985 325.8 235.047 330.76 235.162L330.761 235.162Z" fill="black"/>
<path d="M361.832 229.663C360.093 229.758 358.146 230.618 355.685 232.378C353.605 233.872 350.148 235.127 347.264 235.933C344.381 236.738 342.079 237.13 342.079 237.13C341.903 237.16 341.735 237.227 341.583 237.327C341.431 237.427 341.299 237.558 341.195 237.713C341.09 237.868 341.015 238.044 340.973 238.231C340.932 238.417 340.924 238.61 340.952 238.799C341.008 239.182 341.203 239.524 341.494 239.752C341.785 239.98 342.147 240.074 342.502 240.013C342.502 240.013 344.927 239.601 347.943 238.759C350.959 237.917 354.574 236.684 357.186 234.809C359.424 233.209 360.999 232.632 361.97 232.579C362.94 232.525 363.378 232.82 363.904 233.474C364.146 233.775 364.454 235.075 364.091 236.7C363.729 238.325 362.82 240.191 361.33 241.665C357.804 245.161 347.116 256.976 345.295 258.995C344.452 259.933 343.154 260.973 342.117 261.243C341.598 261.378 341.179 261.358 340.759 261.158C340.338 260.959 339.854 260.542 339.345 259.611C339.254 259.446 339.135 259.301 338.992 259.186C338.85 259.071 338.689 258.987 338.516 258.939C338.344 258.891 338.165 258.88 337.988 258.907C337.812 258.933 337.643 258.997 337.489 259.094C337.336 259.192 337.202 259.321 337.095 259.474C336.988 259.627 336.91 259.801 336.865 259.987C336.821 260.173 336.81 260.366 336.835 260.556C336.86 260.745 336.919 260.928 337.01 261.093C337.732 262.414 338.637 263.343 339.668 263.832C340.699 264.32 341.794 264.329 342.753 264.079C344.671 263.58 346.186 262.198 347.24 261.026C349.045 259.024 359.876 247.073 363.164 243.813C365.081 241.918 366.239 239.574 366.729 237.379C367.218 235.186 367.162 233.06 365.951 231.559C365.03 230.413 363.57 229.565 361.832 229.66V229.663Z" fill="black"/>
<path d="M347.75 257.213C347.575 257.179 347.395 257.182 347.221 257.222C347.047 257.263 346.882 257.34 346.736 257.449C346.59 257.558 346.465 257.697 346.368 257.858C346.272 258.019 346.206 258.199 346.174 258.388L319.564 416.406L259.104 450.295L255.659 310.387C255.97 309.883 258.446 305.902 262.526 300.958C266.872 295.694 272.812 289.744 278.89 286.938C279.054 286.862 279.202 286.753 279.326 286.616C279.451 286.478 279.549 286.316 279.615 286.138C279.681 285.96 279.713 285.77 279.711 285.578C279.709 285.386 279.671 285.197 279.601 285.021C279.46 284.665 279.193 284.384 278.859 284.241C278.526 284.097 278.153 284.101 277.823 284.254C271.072 287.369 264.979 293.591 260.5 299.018C256.02 304.446 253.159 309.139 253.159 309.139C253.007 309.388 252.93 309.681 252.937 309.979L256.453 452.705C256.459 452.953 256.524 453.194 256.64 453.408C256.757 453.621 256.922 453.798 257.12 453.924C257.318 454.049 257.542 454.119 257.772 454.125C258.001 454.132 258.229 454.075 258.433 453.961L321.405 418.666C321.588 418.563 321.747 418.416 321.87 418.237C321.992 418.057 322.075 417.85 322.112 417.631L348.84 258.909C348.904 258.528 348.825 258.136 348.621 257.818C348.416 257.5 348.103 257.283 347.75 257.213Z" fill="black"/>
<path d="M333.044 209.674C331.182 209.443 329.444 209.879 327.954 210.298C325.268 211.062 318.54 212.15 318.54 212.15C318.364 212.178 318.195 212.243 318.042 212.341C317.889 212.44 317.756 212.569 317.65 212.723C317.544 212.877 317.467 213.052 317.424 213.238C317.38 213.424 317.371 213.617 317.397 213.807C317.423 213.996 317.484 214.179 317.575 214.343C317.667 214.508 317.787 214.651 317.93 214.765C318.073 214.88 318.236 214.962 318.408 215.009C318.581 215.055 318.76 215.065 318.937 215.037C318.937 215.037 325.519 214.008 328.642 213.121H328.65C330.062 212.724 331.475 212.417 332.741 212.574C334.008 212.731 335.162 213.259 336.376 214.854C337.71 216.612 338.616 218.451 338.708 219.311C338.754 219.741 338.716 219.792 338.601 219.907C338.489 220.022 338.081 220.27 337.153 220.328C336.795 220.35 336.459 220.525 336.22 220.814C335.981 221.103 335.858 221.482 335.879 221.868C335.899 222.255 336.062 222.617 336.33 222.874C336.598 223.132 336.95 223.264 337.309 223.242C338.608 223.161 339.689 222.824 340.471 222.02C341.254 221.216 341.51 220.014 341.4 218.979C341.18 216.908 339.957 214.959 338.474 213.005C336.87 210.898 334.915 209.906 333.052 209.676L333.044 209.674Z" fill="black"/>
<path d="M332.945 214.918C332.816 214.785 332.665 214.681 332.499 214.611C332.333 214.542 332.156 214.508 331.978 214.512C331.8 214.516 331.625 214.558 331.462 214.635C331.299 214.712 331.152 214.823 331.029 214.962C330.905 215.1 330.809 215.263 330.744 215.442C330.679 215.62 330.648 215.811 330.652 216.002C330.655 216.194 330.694 216.383 330.765 216.559C330.837 216.734 330.94 216.893 331.068 217.026C331.068 217.026 332.235 218.231 333.527 219.643C334.819 221.055 336.296 222.807 336.618 223.336C337.03 224.013 337.164 224.57 337.17 224.851C337.178 225.133 337.148 225.066 337.162 225.053C337.16 225.053 337.157 225.053 337.155 225.053C337.19 225.027 337.172 225.117 336.74 224.95C336.31 224.784 335.6 224.325 334.741 223.488C332.894 221.678 329.014 217.632 329.014 217.632C328.886 217.498 328.735 217.393 328.57 217.323C328.404 217.253 328.227 217.218 328.049 217.221C327.872 217.224 327.696 217.265 327.533 217.341C327.369 217.418 327.222 217.528 327.098 217.666C326.974 217.803 326.877 217.966 326.811 218.144C326.746 218.322 326.713 218.513 326.716 218.705C326.719 218.896 326.757 219.085 326.828 219.261C326.898 219.437 327 219.596 327.128 219.73C327.128 219.73 330.987 223.755 332.92 225.649C333.949 226.653 334.884 227.332 335.825 227.697C336.765 228.061 337.845 228.076 338.677 227.469C339.497 226.872 339.899 225.79 339.876 224.778C339.854 223.764 339.5 222.75 338.881 221.733C338.173 220.569 336.778 219.037 335.455 217.591C334.131 216.144 332.941 214.915 332.941 214.915L332.945 214.918Z" fill="black"/>
<path d="M323.115 220.111C322.978 219.988 322.82 219.896 322.65 219.84C322.48 219.783 322.301 219.763 322.124 219.781C321.946 219.799 321.774 219.854 321.617 219.944C321.459 220.033 321.32 220.155 321.206 220.303C321.093 220.451 321.007 220.621 320.955 220.804C320.903 220.988 320.884 221.18 320.901 221.371C320.918 221.562 320.969 221.747 321.053 221.917C321.136 222.086 321.249 222.237 321.386 222.359C321.386 222.359 323.256 224.028 325.444 225.869C327.631 227.71 330.007 229.675 331.565 230.52C333.119 231.368 334.92 231.375 335.995 230.145C337.071 228.914 337.086 227.073 336.453 225.211C336.392 225.031 336.298 224.866 336.178 224.725C336.057 224.583 335.912 224.469 335.751 224.389C335.589 224.308 335.414 224.262 335.236 224.255C335.059 224.247 334.881 224.277 334.714 224.343C334.547 224.409 334.393 224.509 334.262 224.639C334.131 224.769 334.026 224.925 333.951 225.099C333.876 225.273 333.834 225.462 333.826 225.653C333.819 225.845 333.847 226.036 333.908 226.216C334.336 227.474 334.092 228.064 334.021 228.145C333.951 228.225 333.721 228.424 332.79 227.915C332.788 227.915 332.785 227.915 332.783 227.915C331.848 227.409 329.262 225.384 327.11 223.572C324.958 221.761 323.112 220.114 323.112 220.114L323.115 220.111Z" fill="black"/>
<path d="M298.178 218.733C297.084 218.756 295.966 218.857 294.84 219.04C291.249 219.63 281.424 221.166 281.424 221.166C281.068 221.222 280.748 221.427 280.533 221.737C280.318 222.047 280.226 222.437 280.277 222.82C280.329 223.203 280.519 223.548 280.807 223.779C281.095 224.011 281.457 224.11 281.812 224.054C281.812 224.054 291.619 222.522 295.246 221.927C299.259 221.274 303.286 221.892 305.65 223.103C308.596 224.621 313.314 226.244 316.661 225.706C316.812 225.682 317.525 225.807 318.374 226.237C319.223 226.667 320.221 227.325 321.19 228.026C322.159 228.727 323.104 229.47 323.903 230.086C324.702 230.702 325.204 231.155 325.923 231.469C326.853 231.873 328.129 232.223 329.53 231.841C330.231 231.649 331.062 231.116 331.419 230.173C331.776 229.229 331.626 228.204 331.212 227.135C331.143 226.958 331.043 226.797 330.917 226.662C330.791 226.527 330.641 226.42 330.477 226.347C330.312 226.274 330.136 226.236 329.958 226.237C329.78 226.237 329.604 226.276 329.439 226.35C329.275 226.423 329.126 226.531 329 226.667C328.875 226.803 328.775 226.964 328.708 227.141C328.64 227.319 328.605 227.509 328.606 227.7C328.606 227.892 328.642 228.082 328.71 228.259C328.97 228.929 328.881 229.145 328.909 229.071C328.936 228.997 329.05 228.961 328.864 229.011C328.495 229.112 327.335 228.933 326.939 228.762C327.001 228.789 326.258 228.314 325.477 227.712C324.696 227.109 323.726 226.344 322.697 225.6C321.669 224.857 320.586 224.132 319.523 223.594C318.46 223.055 317.43 222.628 316.257 222.817C314.308 223.13 309.304 221.751 306.814 220.468C304.51 219.287 301.46 218.662 298.179 218.733L298.178 218.733Z" fill="black"/>
<path d="M327.525 205.237C326.818 205.211 326.06 205.338 325.302 205.713C323.36 206.671 319.159 207.394 316.166 208.658C311.757 210.531 303.307 210.011 296.091 209.609C288.889 209.225 279.458 208.733 279.458 208.733C279.28 208.723 279.102 208.752 278.935 208.817C278.767 208.882 278.613 208.981 278.482 209.11C278.35 209.239 278.243 209.394 278.167 209.568C278.091 209.741 278.048 209.929 278.039 210.12C278.031 210.312 278.057 210.503 278.117 210.684C278.177 210.864 278.27 211.03 278.39 211.172C278.509 211.314 278.654 211.429 278.815 211.511C278.976 211.592 279.15 211.639 279.328 211.648C279.328 211.648 288.757 212.141 295.956 212.525C303.127 212.924 311.602 213.738 317.166 211.375C319.624 210.337 323.752 209.692 326.441 208.365C327.239 207.97 327.711 208.074 328.422 208.387C329.133 208.701 329.934 209.324 330.976 209.777C331.141 209.848 331.318 209.884 331.496 209.882C331.674 209.88 331.849 209.84 332.013 209.765C332.177 209.69 332.325 209.581 332.45 209.444C332.574 209.307 332.673 209.145 332.739 208.967C332.873 208.608 332.869 208.207 332.729 207.851C332.588 207.495 332.322 207.214 331.989 207.069C331.397 206.813 330.553 206.172 329.448 205.685C328.896 205.441 328.242 205.261 327.535 205.235L327.525 205.237Z" fill="black"/>
<path d="M443.108 168.2C415.927 168.504 401.557 169.038 392.78 170.161C384.004 171.284 380.696 173.108 376.339 175.686C373.742 177.223 365.878 182.416 355.797 189.15C345.715 195.883 333.486 204.118 322.413 211.591C322.109 211.797 321.893 212.125 321.813 212.502C321.732 212.879 321.795 213.275 321.985 213.603C322.176 213.931 322.48 214.164 322.831 214.25C323.181 214.337 323.549 214.27 323.853 214.064C334.924 206.592 347.151 198.36 357.226 191.63C367.3 184.901 375.293 179.635 377.644 178.244C381.983 175.676 384.571 174.152 393.101 173.061C401.631 171.969 415.98 171.423 443.137 171.119C444.443 171.103 445.453 171.241 446.085 171.479C446.716 171.717 446.937 171.948 447.098 172.339C447.418 173.12 447.212 175.43 445.496 179.382C440.741 190.33 437.781 196.362 435.293 200.148C432.805 203.934 430.827 205.524 427.638 207.879C424.579 210.14 403.948 224.367 384.233 237.913C364.518 251.46 345.605 264.415 345.605 264.415C345.455 264.517 345.325 264.651 345.223 264.808C345.121 264.965 345.048 265.142 345.009 265.329C344.97 265.516 344.966 265.71 344.997 265.898C345.028 266.087 345.093 266.268 345.188 266.43C345.284 266.591 345.408 266.731 345.553 266.841C345.699 266.951 345.863 267.03 346.037 267.071C346.211 267.113 346.391 267.117 346.566 267.084C346.741 267.051 346.909 266.981 347.059 266.878C347.059 266.878 365.974 253.923 385.691 240.375C405.408 226.827 425.811 212.771 429.171 210.287C432.408 207.896 434.824 205.917 437.507 201.834C440.19 197.751 443.176 191.614 447.952 180.619C449.774 176.423 450.55 173.529 449.578 171.16C449.092 169.975 448.099 169.144 446.981 168.723C445.863 168.301 444.587 168.182 443.11 168.2H443.108ZM307.725 221.525C298.169 227.989 291.554 232.486 291.554 232.486C291.25 232.693 291.035 233.021 290.956 233.398C290.877 233.776 290.94 234.172 291.132 234.499C291.324 234.826 291.629 235.058 291.98 235.143C292.33 235.229 292.698 235.16 293.001 234.954C293.001 234.954 299.613 230.46 309.166 223.997C309.317 223.895 309.447 223.762 309.55 223.606C309.654 223.45 309.727 223.273 309.767 223.086C309.806 222.899 309.811 222.705 309.781 222.516C309.751 222.327 309.687 222.146 309.592 221.984C309.401 221.656 309.097 221.424 308.747 221.338C308.397 221.252 308.029 221.319 307.725 221.525Z" fill="black"/>
<path fill-rule="evenodd" clip-rule="evenodd" d="M292.278 233.72C292.278 233.72 298.89 229.224 308.445 222.761Z" fill="black"/>
<path d="M221.747 171.77C221.6 171.661 221.436 171.584 221.262 171.544C221.088 171.503 220.908 171.5 220.733 171.534C220.558 171.569 220.391 171.64 220.241 171.744C220.091 171.848 219.962 171.982 219.861 172.14C219.657 172.458 219.578 172.851 219.643 173.231C219.707 173.612 219.909 173.949 220.204 174.17C220.204 174.17 226.521 178.88 233.978 184.157C241.434 189.434 249.954 195.251 254.708 197.615C264.124 202.293 275.347 202.958 281.268 204.655C287.676 206.495 299.005 208.195 307.026 207.713C314.862 207.233 321.125 206.188 321.125 206.188C321.48 206.129 321.798 205.92 322.01 205.608C322.223 205.296 322.311 204.906 322.256 204.523C322.229 204.334 322.168 204.152 322.075 203.988C321.983 203.824 321.861 203.681 321.717 203.568C321.574 203.455 321.411 203.373 321.238 203.328C321.065 203.282 320.885 203.274 320.709 203.303C320.709 203.303 314.568 204.328 306.873 204.799C299.363 205.25 287.99 203.564 281.963 201.834C275.434 199.962 264.591 199.309 255.842 194.963C251.521 192.814 242.891 186.973 235.466 181.718C228.041 176.464 221.747 171.77 221.747 171.77Z" fill="black"/>
<path fill-rule="evenodd" clip-rule="evenodd" d="M403 170.727C407.769 170.435 413.615 170.209 420.901 170.026C420.901 170.026 403.975 184.972 400.236 188.366C387.383 200.026 379.493 202.052 374.886 201.827C370.271 201.602 369.141 197.874 371.796 196.206C376.489 193.27 403 170.727 403 170.727Z" fill="black"/>
<path d="M161.102 355.362C160.798 355.156 160.431 355.088 160.081 355.173C159.731 355.259 159.426 355.491 159.234 355.818C159.234 355.818 151.123 369.67 142.327 385.675C133.532 401.679 124.083 419.675 121.236 428.641C120.908 429.673 120.404 430.594 119.904 431.215C119.424 431.81 118.968 432.023 118.875 432.049C118.858 432.03 118.825 432.014 118.747 431.8C118.548 431.253 118.378 429.929 118.577 427.836C119.004 423.313 119.64 412.615 120.253 402.536C120.559 397.496 120.859 392.62 121.119 388.783C121.379 384.95 121.628 382.02 121.736 381.369C121.736 381.353 122.249 378.407 125.268 374.161C128.295 369.904 133.813 364.503 143.865 360.17C144.199 360.027 144.465 359.746 144.607 359.39C144.748 359.035 144.753 358.633 144.62 358.274C144.554 358.096 144.456 357.934 144.332 357.797C144.207 357.66 144.059 357.55 143.895 357.475C143.732 357.399 143.556 357.359 143.378 357.357C143.2 357.355 143.023 357.39 142.858 357.461C132.4 361.969 126.44 367.711 123.116 372.386C119.792 377.061 119.075 380.82 119.075 380.82C119.072 380.827 119.07 380.834 119.067 380.841C118.869 382.027 118.674 384.716 118.412 388.57C118.151 392.425 117.852 397.304 117.546 402.345C116.933 412.426 116.288 423.191 115.878 427.541C115.655 429.885 115.745 431.559 116.22 432.865C116.457 433.518 116.815 434.1 117.342 434.502C117.868 434.903 118.543 435.059 119.131 434.987C120.306 434.844 121.18 434.08 121.946 433.13C122.713 432.18 123.358 430.965 123.796 429.587C126.4 421.389 135.883 403.126 144.656 387.163C153.429 371.2 161.522 357.376 161.522 357.376C161.617 357.214 161.682 357.033 161.712 356.844C161.742 356.656 161.737 356.462 161.698 356.275C161.658 356.088 161.585 355.911 161.483 355.755C161.38 355.598 161.249 355.465 161.099 355.363L161.102 355.362Z" fill="black"/>
<path d="M177.881 307.718C177.531 307.631 177.163 307.698 176.858 307.902C176.858 307.902 168.698 313.403 160.178 319.126C151.658 324.848 142.65 330.872 141.378 331.66C141.583 331.534 141.212 331.716 140.709 331.81C140.206 331.905 139.496 332.006 138.619 332.108C136.867 332.314 134.446 332.532 131.525 332.789C125.685 333.304 117.834 333.978 109.124 335.057C91.7056 337.215 70.8737 340.961 55.6023 348.437C53.4607 349.484 52.0968 350.429 51.2636 351.608C50.847 352.198 50.5707 352.898 50.5559 353.627C50.5412 354.355 50.7959 355.034 51.1457 355.552C51.8452 356.589 52.858 357.192 53.9706 357.727C55.0832 358.262 56.3217 358.682 57.4972 359.023C59.546 359.615 67.8005 362.651 76.219 366.107C84.6367 369.564 93.47 373.584 96.6405 375.844C103.723 380.902 110.782 384.418 120.44 383.335C120.618 383.316 120.789 383.258 120.946 383.167C121.102 383.076 121.241 382.952 121.353 382.803C121.465 382.655 121.549 382.484 121.6 382.3C121.651 382.116 121.667 381.923 121.649 381.732C121.63 381.542 121.578 381.357 121.493 381.188C121.408 381.019 121.293 380.87 121.155 380.75C121.017 380.629 120.858 380.538 120.687 380.484C120.517 380.429 120.338 380.411 120.161 380.431C111.221 381.433 105.023 378.327 98.1377 373.41C94.3236 370.691 85.6562 366.859 77.1838 363.381C68.7113 359.902 60.6857 356.922 58.1974 356.204C57.1042 355.886 55.9756 355.496 55.07 355.06C54.1644 354.624 53.5073 354.097 53.3309 353.835C53.2427 353.705 53.2581 353.694 53.2581 353.689C53.2582 353.68 53.2503 353.604 53.4138 353.374C53.7389 352.914 54.774 352.044 56.7167 351.094C71.4485 343.882 92.1208 340.1 109.426 337.956C118.079 336.884 125.896 336.214 131.741 335.699C134.664 335.441 137.092 335.224 138.907 335.011C139.814 334.905 140.566 334.799 141.17 334.685C141.775 334.572 142.157 334.542 142.722 334.192C144.33 333.195 153.083 327.326 161.606 321.602C170.128 315.878 178.289 310.377 178.289 310.377C178.44 310.275 178.571 310.143 178.674 309.986C178.777 309.83 178.851 309.654 178.891 309.467C178.931 309.28 178.937 309.087 178.907 308.898C178.878 308.709 178.814 308.528 178.72 308.365C178.529 308.037 178.225 307.805 177.874 307.718H177.881Z" fill="black"/>
<path fill-rule="evenodd" clip-rule="evenodd" d="M188.749 321.083C190.097 320.016 191.521 319.348 193.705 320.933C195.896 322.526 197.46 324.353 194.913 326.421C192.365 328.498 177.306 340.574 175.161 341.875C173.016 343.176 169.516 343.026 166.264 340.482C163.314 338.172 187.224 322.284 188.749 321.083Z" fill="black"/>
<path d="M254.985 326.231C254.632 326.157 254.267 326.237 253.968 326.453C253.968 326.453 237.104 338.691 218.696 351.861C200.289 365.031 180.23 379.195 174.235 382.821C161.183 390.701 151.107 391.019 142.218 388.077C142.048 388.021 141.87 388.001 141.692 388.019C141.515 388.037 141.343 388.093 141.186 388.182C141.028 388.272 140.889 388.394 140.776 388.542C140.662 388.69 140.577 388.86 140.525 389.043C140.472 389.227 140.454 389.419 140.471 389.61C140.488 389.801 140.539 389.987 140.623 390.156C140.706 390.325 140.82 390.476 140.957 390.598C141.095 390.72 141.253 390.811 141.423 390.868C150.931 394.014 162.008 393.55 175.561 385.367C181.923 381.519 201.778 367.47 220.195 354.293C238.612 341.116 255.482 328.875 255.482 328.875C255.78 328.659 255.986 328.324 256.055 327.945C256.124 327.565 256.05 327.171 255.85 326.85C255.75 326.691 255.623 326.555 255.474 326.449C255.326 326.343 255.159 326.27 254.985 326.233V326.231Z" fill="black"/>
</g>
<defs>
<clipPath id="clip0_255_2">
<rect width="400" height="427" fill="white" transform="translate(50 37)"/>
</clipPath>
</defs>
</svg>
