<svg width="517" height="513" viewBox="0 0 517 513" fill="none" xmlns="http://www.w3.org/2000/svg">
<g clip-path="url(#clip0_1_193)">
<path d="M117.513 80.7244C103.423 88.8625 89.9835 103.242 89.9835 103.242C89.6662 103.58 89.4961 104.031 89.5108 104.494C89.5254 104.958 89.7235 105.397 90.0615 105.715C90.3996 106.032 90.85 106.203 91.3136 106.188C91.7773 106.174 92.2162 105.977 92.5341 105.639C92.5341 105.639 105.895 91.4776 119.265 83.7557C119.666 83.5233 119.959 83.141 120.079 82.6927C120.199 82.2444 120.135 81.7668 119.903 81.3651C119.788 81.166 119.635 80.9916 119.453 80.8516C119.271 80.7117 119.063 80.6091 118.841 80.5496C118.619 80.4902 118.387 80.475 118.159 80.505C117.931 80.535 117.712 80.6095 117.513 80.7244Z" fill="black"/>
<path d="M117.165 148.83C117.165 148.83 113.891 151.919 112.339 154.498C112.1 154.896 112.029 155.372 112.141 155.822C112.253 156.272 112.539 156.659 112.937 156.898C113.134 157.017 113.352 157.096 113.579 157.13C113.806 157.164 114.038 157.153 114.261 157.098C114.484 157.043 114.694 156.944 114.879 156.807C115.064 156.671 115.22 156.499 115.339 156.303C116.327 154.661 119.613 151.33 119.613 151.33C119.944 151.005 120.134 150.562 120.139 150.098C120.144 149.634 119.964 149.187 119.64 148.855C119.315 148.524 118.872 148.335 118.407 148.33C117.943 148.326 117.497 148.505 117.165 148.83Z" fill="black"/>
<path d="M136.841 181.133C136.377 181.111 135.924 181.274 135.581 181.586C135.581 181.586 134.402 182.659 133.048 183.97C131.694 185.282 130.208 186.749 129.343 187.941C129.208 188.127 129.111 188.338 129.057 188.562C129.003 188.785 128.994 189.017 129.03 189.244C129.066 189.471 129.147 189.689 129.267 189.885C129.388 190.081 129.545 190.252 129.732 190.386C130.107 190.659 130.576 190.771 131.034 190.698C131.492 190.625 131.902 190.373 132.175 189.998C132.659 189.331 134.175 187.752 135.483 186.484C136.792 185.216 137.937 184.174 137.937 184.174C138.28 183.861 138.484 183.426 138.506 182.962C138.528 182.499 138.366 182.046 138.054 181.703C137.899 181.533 137.712 181.395 137.504 181.297C137.296 181.199 137.071 181.143 136.841 181.133Z" fill="black"/>
<path d="M120.142 240.953L117.202 243.664C116.861 243.978 116.659 244.416 116.64 244.879C116.621 245.343 116.788 245.795 117.102 246.136C117.417 246.478 117.854 246.68 118.318 246.698C118.781 246.717 119.234 246.551 119.575 246.237L122.514 243.528C122.856 243.213 123.058 242.776 123.077 242.312C123.096 241.849 122.93 241.396 122.616 241.055C122.46 240.886 122.273 240.749 122.064 240.652C121.855 240.555 121.63 240.5 121.4 240.491C121.17 240.482 120.94 240.518 120.724 240.597C120.509 240.676 120.311 240.797 120.142 240.953Z" fill="black"/>
<path d="M128.272 278.693C128.272 278.693 126.176 280.404 123.915 282.431C122.785 283.445 121.61 284.539 120.614 285.562C119.618 286.586 118.816 287.436 118.298 288.457C118.194 288.662 118.131 288.885 118.113 289.114C118.095 289.343 118.123 289.574 118.194 289.792C118.265 290.011 118.379 290.213 118.529 290.388C118.678 290.563 118.86 290.706 119.065 290.81C119.27 290.914 119.494 290.977 119.723 290.995C119.952 291.013 120.183 290.985 120.401 290.914C120.62 290.843 120.822 290.729 120.997 290.58C121.171 290.43 121.315 290.248 121.419 290.043C121.52 289.843 122.219 288.934 123.124 288.004C124.029 287.073 125.156 286.018 126.251 285.037C128.44 283.074 130.485 281.406 130.485 281.406C130.663 281.261 130.811 281.082 130.92 280.879C131.029 280.677 131.097 280.454 131.12 280.226C131.143 279.997 131.12 279.766 131.054 279.546C130.988 279.326 130.879 279.121 130.733 278.943C130.44 278.584 130.016 278.356 129.555 278.309C129.093 278.262 128.632 278.4 128.272 278.693Z" fill="black"/>
<path d="M16.7804 405.898C9.88673 408.697 0.80973 414.504 0.80973 414.504C0.418665 414.753 0.142488 415.147 0.0417856 415.6C-0.0589172 416.052 0.0240766 416.526 0.272621 416.918C0.395825 417.112 0.556069 417.28 0.744178 417.412C0.932287 417.544 1.14457 417.638 1.36893 417.688C1.59329 417.738 1.82536 417.743 2.0518 417.704C2.27823 417.664 2.49462 417.58 2.68864 417.457C2.68864 417.457 11.7905 411.701 18.0968 409.14C18.5267 408.966 18.8696 408.628 19.0502 408.2C19.2308 407.773 19.2342 407.291 19.0597 406.861C18.8851 406.431 18.5468 406.088 18.1194 405.908C17.692 405.727 17.2104 405.724 16.7804 405.898Z" fill="black"/>
<path d="M54.3195 433.144C54.3195 433.144 45.8955 436.508 36.1066 441.486C26.3177 446.464 15.1669 452.946 9.37223 459.8C9.07308 460.155 8.9268 460.614 8.96561 461.076C9.00443 461.538 9.22519 461.966 9.57926 462.265C9.75468 462.414 9.95763 462.526 10.1766 462.596C10.3955 462.666 10.6261 462.693 10.8551 462.674C11.0842 462.655 11.3073 462.591 11.5116 462.485C11.716 462.38 11.8976 462.236 12.0461 462.06C17.0815 456.104 28.0589 449.504 37.6925 444.605C47.3261 439.706 55.6183 436.394 55.6183 436.394C56.0492 436.222 56.3942 435.886 56.5773 435.46C56.7604 435.033 56.7667 434.552 56.5949 434.121C56.5097 433.907 56.3833 433.712 56.2228 433.548C56.0623 433.383 55.8709 433.251 55.6596 433.161C55.4483 433.07 55.2212 433.022 54.9912 433.019C54.7613 433.016 54.533 433.059 54.3195 433.144Z" fill="black"/>
<path d="M62.2902 465.842C61.9273 465.552 61.4645 465.419 61.0033 465.471C60.5422 465.523 60.1206 465.756 59.8312 466.119L54.841 472.379C54.5517 472.742 54.4185 473.204 54.4705 473.666C54.5225 474.127 54.7555 474.548 55.1183 474.838C55.4812 475.127 55.9442 475.26 56.4053 475.208C56.8665 475.156 57.288 474.923 57.5773 474.56L62.5675 468.301C62.8568 467.938 62.99 467.475 62.938 467.014C62.886 466.553 62.653 466.131 62.2902 465.842Z" fill="black"/>
<path d="M206.431 422.082C206.206 422.032 205.974 422.026 205.748 422.066C205.521 422.105 205.305 422.189 205.111 422.312L201.392 424.672C201.198 424.795 201.03 424.955 200.897 425.143C200.765 425.331 200.671 425.543 200.621 425.768C200.57 425.992 200.565 426.224 200.604 426.45C200.644 426.677 200.728 426.893 200.851 427.088C200.974 427.282 201.134 427.45 201.322 427.582C201.51 427.714 201.723 427.808 201.947 427.858C202.171 427.908 202.403 427.913 202.63 427.874C202.856 427.834 203.073 427.75 203.267 427.627L206.986 425.267C207.18 425.144 207.348 424.984 207.48 424.796C207.613 424.608 207.707 424.396 207.757 424.171C207.807 423.947 207.812 423.715 207.773 423.488C207.733 423.262 207.65 423.045 207.527 422.851C207.278 422.46 206.884 422.183 206.431 422.082Z" fill="black"/>
<path d="M244.234 440.047L216.025 455.597C215.618 455.822 215.318 456.198 215.189 456.644C215.06 457.089 215.113 457.568 215.337 457.974C215.561 458.381 215.938 458.681 216.383 458.81C216.829 458.939 217.308 458.886 217.714 458.662L245.923 443.113C246.124 443.002 246.302 442.853 246.446 442.673C246.589 442.493 246.696 442.287 246.76 442.066C246.824 441.845 246.843 441.614 246.818 441.385C246.792 441.157 246.722 440.935 246.611 440.734C246.386 440.328 246.01 440.027 245.564 439.898C245.119 439.769 244.64 439.823 244.234 440.047Z" fill="black"/>
<path d="M242.769 503.48C242.305 503.464 241.854 503.633 241.515 503.949L235.425 509.631C235.086 509.947 234.886 510.386 234.87 510.849C234.854 511.313 235.023 511.764 235.339 512.103C235.656 512.443 236.094 512.642 236.558 512.658C237.021 512.674 237.472 512.506 237.812 512.189L243.902 506.51C244.241 506.193 244.441 505.755 244.457 505.292C244.474 504.828 244.306 504.377 243.989 504.037C243.833 503.868 243.644 503.733 243.435 503.637C243.225 503.542 242.999 503.488 242.769 503.48Z" fill="black"/>
<path d="M224.724 108.644C224.498 108.599 224.266 108.599 224.041 108.643C223.815 108.688 223.601 108.776 223.409 108.904C223.023 109.161 222.755 109.561 222.664 110.016C222.573 110.471 222.666 110.944 222.923 111.33C226.274 116.361 232.631 118.464 241.689 117.049C241.916 117.013 242.134 116.933 242.33 116.813C242.526 116.694 242.697 116.537 242.832 116.351C242.968 116.165 243.065 115.954 243.119 115.731C243.174 115.507 243.183 115.276 243.148 115.049C243.075 114.59 242.824 114.179 242.449 113.906C242.074 113.633 241.606 113.52 241.148 113.592C232.805 114.896 228.344 113.159 225.835 109.39C225.578 109.004 225.178 108.736 224.724 108.644Z" fill="black"/>
<path d="M239.792 77.572C239.569 77.6281 239.36 77.7275 239.175 77.8647C238.991 78.0019 238.835 78.1742 238.717 78.3716C238.599 78.5689 238.521 78.7874 238.488 79.0149C238.455 79.2423 238.466 79.4741 238.523 79.697C239.861 85.0138 242.059 89.1425 245.196 91.9704C248.334 94.7983 252.373 96.2284 256.983 96.32C257.213 96.3247 257.442 96.2841 257.656 96.2004C257.87 96.1167 258.066 95.9917 258.231 95.8325C258.397 95.6732 258.53 95.4828 258.622 95.2722C258.714 95.0616 258.764 94.835 258.769 94.6052C258.773 94.3754 258.733 94.1469 258.649 93.9328C258.565 93.7187 258.44 93.5232 258.281 93.3574C258.122 93.1916 257.931 93.0587 257.721 92.9665C257.51 92.8743 257.284 92.8246 257.054 92.82C253.104 92.741 250.022 91.606 247.54 89.3689C245.058 87.1318 243.137 83.6947 241.915 78.8415C241.802 78.3917 241.514 78.0054 241.116 77.7673C240.718 77.5292 240.242 77.459 239.792 77.572Z" fill="black"/>
<path d="M230.24 64.8894C228.77 65.0492 227.849 66.1654 227.274 67.3081C226.698 68.4509 226.33 69.8357 226.068 71.4687C225.544 74.7346 225.497 78.9854 226.002 83.6231C226.506 88.2608 227.464 92.4006 228.677 95.4776C229.284 97.0162 229.942 98.2914 230.749 99.2839C231.557 100.276 232.696 101.168 234.166 101.009C235.637 100.849 236.558 99.7327 237.133 98.5899C237.709 97.4472 238.077 96.0603 238.339 94.4275C238.863 91.1615 238.909 86.9125 238.405 82.2749C237.901 77.6372 236.943 73.4955 235.729 70.4185C235.123 68.8799 234.465 67.6067 233.658 66.6142C232.85 65.6217 231.711 64.7297 230.24 64.8894ZM230.616 68.3456C230.381 68.3711 230.519 68.2646 230.961 68.8091C231.404 69.3531 231.971 70.3665 232.495 71.6954C233.543 74.3532 234.473 78.2688 234.949 82.6506C235.425 87.0323 235.359 91.0564 234.906 93.8772C234.68 95.2877 234.344 96.3992 234.028 97.0257C233.713 97.6521 233.556 97.5761 233.791 97.5505C234.026 97.525 233.89 97.6333 233.448 97.0888C233.005 96.5447 232.438 95.5313 231.914 94.2025C230.866 91.5448 229.934 87.6292 229.458 83.2475C228.982 78.8656 229.05 74.8415 229.503 72.0206C229.729 70.6102 230.065 69.4985 230.381 68.8722C230.696 68.2457 230.851 68.32 230.616 68.3456Z" fill="black"/>
<path d="M242.956 63.0037C241.809 63.1283 241.037 63.9328 240.577 64.7048C240.117 65.4767 239.834 66.3548 239.612 67.3689C239.17 69.3973 239.022 71.9806 239.165 74.8845C239.176 75.1129 239.232 75.3369 239.33 75.5437C239.428 75.7505 239.565 75.936 239.735 76.0896C239.904 76.2432 240.102 76.3619 240.317 76.439C240.533 76.516 240.761 76.55 240.989 76.5388C241.218 76.5275 241.442 76.4712 241.648 76.3733C241.855 76.2754 242.041 76.1376 242.194 75.968C242.347 75.7984 242.466 75.6004 242.543 75.385C242.619 75.1696 242.653 74.9411 242.642 74.7126C242.51 72.0385 242.673 69.6786 243.015 68.113C243.132 67.5775 243.265 67.3104 243.394 67.0017C243.666 67.3996 243.981 67.91 244.302 68.7244C245.072 70.6784 245.77 73.6045 246.126 76.8767C246.482 80.149 246.429 83.1564 246.097 85.2302C245.953 86.1277 245.746 86.7356 245.56 87.1794C245.53 87.1364 245.515 87.1244 245.484 87.0759C245.232 86.689 244.837 86.4181 244.385 86.3225C243.934 86.2269 243.463 86.3145 243.076 86.5662C242.689 86.818 242.418 87.2132 242.322 87.6648C242.227 88.1164 242.314 88.5874 242.566 88.9744C242.778 89.3005 243 89.6124 243.273 89.9099C243.276 89.9133 243.28 89.9166 243.283 89.9199C243.905 90.5912 244.853 91.2364 246.014 91.1113C247.334 90.9678 248.122 89.9768 248.588 89.0508C249.053 88.1247 249.335 87.0447 249.537 85.7852C249.941 83.2663 249.973 80.0323 249.59 76.5039C249.206 72.9755 248.48 69.8247 247.545 67.4512C247.077 66.2645 246.57 65.2711 245.916 64.4668C245.262 63.6624 244.279 62.8643 242.959 63.0078L242.956 63.0037Z" fill="black"/>
<path d="M254.905 0.689209C250.52 0.644209 246.584 2.7093 243.185 5.9978C239.785 9.2869 236.813 13.8182 234.058 19.0994C232.571 21.9397 230.49 25.4719 227.236 27.6599C223.981 29.8483 219.551 30.918 212.493 28.5134C204.991 25.9573 198.872 24.3279 193.501 23.9275C188.13 23.5272 183.467 24.4126 179.259 26.8572C175.235 29.186 167.016 35.4505 166.736 48.6736C162.283 48.2113 147.784 47.5746 139.872 58.7263C138.982 59.9855 134.875 65.3425 132.724 73.8318C130.573 82.3212 130.295 94.113 136.482 108.584C137.597 111.183 141.239 118.64 147.945 125.156C154.65 131.672 164.584 137.213 177.708 135.418C181.971 134.835 185.174 132.631 187.304 129.955C189.433 127.279 190.559 124.163 190.962 121.463C191.167 120.088 191.28 118.981 190.476 117.881C190.074 117.33 189.393 116.961 188.825 116.855C188.258 116.75 187.789 116.811 187.357 116.894C185.628 117.229 184.011 118.058 182.4 118.234C179.462 118.563 176.477 117.246 173.997 115.052C171.517 112.859 169.646 109.809 169.001 107.281C168.102 103.763 167.716 99.9537 168.202 97.3396C168.446 96.0325 168.894 95.0656 169.439 94.488C169.983 93.9104 170.602 93.5935 171.777 93.5935C175.145 93.5935 178.278 95.2497 180.798 97.281C183.318 99.3123 185.172 101.677 185.933 102.742C187.242 104.563 189.594 105.362 191.726 104.506C192.792 104.078 193.735 103.163 194.236 101.949C194.736 100.735 194.844 99.2716 194.573 97.5486C194.022 94.0406 191.916 89.2916 191.448 84.8591C191.215 82.6429 191.383 80.6085 192.179 78.9373C192.974 77.2665 194.368 75.8371 197.105 74.7576C203.829 72.1133 213.089 67.9549 222.14 65.2224C231.19 62.4899 239.954 61.3586 245.366 64.0017C247.316 64.9539 249.483 65.4807 251.874 65.1326C254.265 64.7844 256.804 63.6375 259.825 61.5623C262.942 59.418 268.362 54.6424 272.937 48.5486C277.512 42.4547 281.299 35.0181 280.298 27.5564C278.402 13.4313 267.899 0.801543 254.911 0.679443L254.905 0.689209ZM254.871 4.18921C265.542 4.28821 275.118 15.3388 276.822 28.033C277.621 33.9912 274.429 40.7332 270.132 46.4568C265.835 52.1804 260.489 56.8616 257.835 58.6873C255.077 60.5821 253.007 61.44 251.363 61.6794C249.719 61.9187 248.427 61.6144 246.896 60.8669C239.899 57.45 230.479 59.0556 221.122 61.8806C211.765 64.7056 202.393 68.9258 195.818 71.5115C192.431 72.8468 190.192 74.9665 189.013 77.4431C187.834 79.9197 187.687 82.6329 187.962 85.238C188.512 90.448 190.722 95.6293 191.111 98.1013C191.31 99.3733 191.175 100.185 190.993 100.625C190.812 101.065 190.634 101.18 190.417 101.267C189.984 101.441 189.122 101.197 188.771 100.709C187.881 99.4626 185.876 96.8901 182.986 94.5603C180.093 92.2291 176.261 90.0994 171.769 90.0994C169.804 90.0994 168.06 90.8455 166.884 92.0935C165.708 93.3416 165.077 94.9643 164.753 96.7048C164.105 100.186 164.621 104.31 165.603 108.152C166.468 111.544 168.67 115.023 171.673 117.679C174.674 120.335 178.579 122.187 182.779 121.719C184.916 121.485 186.639 120.761 187.568 120.482C187.582 120.656 187.568 120.463 187.498 120.951C187.18 123.08 186.232 125.685 184.564 127.781C182.896 129.877 180.579 131.497 177.232 131.955C165.286 133.589 156.575 128.669 150.381 122.65C144.186 116.631 140.671 109.477 139.697 107.207C133.795 93.3995 134.134 82.5129 136.115 74.6931C138.096 66.8744 141.636 62.2918 142.726 60.7498C150.531 49.7529 168.134 52.3181 168.134 52.3181C168.39 52.3585 168.652 52.3415 168.9 52.2686C169.149 52.1956 169.378 52.0685 169.571 51.8962C169.765 51.724 169.917 51.5109 170.018 51.2725C170.12 51.034 170.167 50.7761 170.156 50.5173C169.615 37.2791 177.221 32.0786 181.013 29.8845C184.585 27.8091 188.377 27.0576 193.236 27.4197C198.095 27.7819 203.981 29.3139 211.359 31.8279C219.181 34.4932 225.076 33.3278 229.183 30.5662C233.291 27.8046 235.61 23.6719 237.154 20.7224C239.809 15.6336 242.643 11.3907 245.613 8.51733C248.583 5.64383 251.581 4.15892 254.865 4.19312L254.871 4.18921Z" fill="black"/>
<path fill-rule="evenodd" clip-rule="evenodd" d="M190.139 87.7497L175.279 92.3395C174.159 92.0295 172.979 91.8495 171.769 91.8495C165.489 91.8495 165.419 100.36 167.299 107.72C168.809 113.64 175.449 120.78 182.589 119.98C186.609 119.54 189.949 116.38 189.229 121.21C188.509 126.04 185.079 132.65 177.469 133.69C152.399 137.12 140.179 112.77 138.089 107.9C125.999 79.6196 139.319 62.5397 141.299 59.7397C149.869 47.6597 168.409 50.5895 168.409 50.5895C167.839 36.6395 176.129 30.6896 180.139 28.3696C187.919 23.8496 197.049 25.0996 211.929 30.1696C226.809 35.2396 232.579 25.6996 235.609 19.9096C241.019 9.5396 247.219 2.35963 254.889 2.43963C266.719 2.54963 276.759 14.3895 278.559 27.7995C280.359 41.2195 264.599 56.1596 258.829 60.1296C253.049 64.0996 249.609 64.1396 246.129 62.4396C233.719 56.3796 209.759 67.9096 196.459 73.1396C189.199 76.0096 188.939 82.0497 190.139 87.7497Z" fill="black"/>
<path d="M226.892 74.5583L174.763 90.6676C174.543 90.7354 174.339 90.8459 174.162 90.9926C173.985 91.1393 173.838 91.3193 173.731 91.5226C173.623 91.726 173.557 91.9487 173.536 92.1776C173.515 92.4066 173.539 92.6374 173.607 92.8571C173.675 93.0766 173.785 93.2806 173.932 93.4574C174.079 93.6343 174.259 93.7804 174.462 93.8876C174.666 93.9948 174.888 94.061 175.117 94.0822C175.346 94.1034 175.576 94.0794 175.796 94.0114L227.925 77.902C228.145 77.8343 228.349 77.7238 228.526 77.5771C228.703 77.4303 228.85 77.2501 228.957 77.0468C229.064 76.8435 229.13 76.6209 229.152 76.392C229.173 76.1631 229.149 75.9322 229.081 75.7126C229.013 75.493 228.903 75.2891 228.756 75.1122C228.609 74.9354 228.429 74.789 228.225 74.6818C228.022 74.5746 227.8 74.5087 227.571 74.4875C227.342 74.4662 227.111 74.4903 226.892 74.5583Z" fill="black"/>
<path d="M186.661 125.992C186.432 126.003 186.206 126.06 185.999 126.158C185.791 126.257 185.605 126.396 185.45 126.566C185.139 126.911 184.978 127.364 185.001 127.827C185.025 128.291 185.231 128.726 185.575 129.037C185.575 129.037 187.158 130.443 188.441 133.523C189.723 136.603 190.622 141.225 188.816 147.603C188.689 148.05 188.745 148.528 188.972 148.933C189.198 149.338 189.576 149.637 190.023 149.763C190.469 149.89 190.948 149.834 191.353 149.607C191.758 149.381 192.056 149.003 192.183 148.556C194.196 141.445 193.219 135.895 191.671 132.178C190.123 128.46 187.923 126.441 187.923 126.441C187.579 126.13 187.125 125.969 186.661 125.992Z" fill="black"/>
<path d="M248.874 101.094C248.438 101.251 248.082 101.576 247.885 101.996C247.688 102.416 247.666 102.897 247.823 103.334C251.143 112.526 247.577 124.649 239.314 132.467C231.05 140.284 218.384 143.941 202.984 136.34C202.567 136.134 202.087 136.103 201.647 136.252C201.208 136.401 200.845 136.718 200.64 137.135C200.538 137.341 200.478 137.565 200.463 137.794C200.448 138.023 200.478 138.253 200.552 138.471C200.626 138.689 200.742 138.89 200.893 139.063C201.045 139.235 201.229 139.377 201.435 139.478C217.944 147.627 232.522 143.709 241.718 135.01C250.914 126.31 255.025 112.972 251.114 102.144C250.957 101.708 250.632 101.352 250.212 101.155C249.792 100.958 249.311 100.936 248.874 101.094Z" fill="black"/>
<path d="M196.925 172.83C182.58 172.7 175.702 185.701 175.702 185.701C175.485 186.111 175.44 186.591 175.577 187.034C175.713 187.478 176.02 187.849 176.431 188.066C176.841 188.283 177.321 188.328 177.764 188.192C178.208 188.055 178.579 187.748 178.796 187.338C178.796 187.338 184.678 176.221 196.892 176.33C205.603 176.414 221.212 181.536 237.128 192.472C239.674 194.221 245.286 198.172 251.501 201.549C257.716 204.925 264.457 207.892 270.083 207.197C279.322 206.067 290.87 207.289 290.87 207.289C290.972 207.301 291.075 207.305 291.177 207.299C291.177 207.299 292.946 207.027 294.812 209.334C296.665 211.625 298.531 216.98 296.749 228.793C296.583 228.919 296.183 229.142 295.612 229.358C294.469 229.79 292.656 230.226 290.419 230.602C285.945 231.353 279.744 231.904 273.015 232.307C265.854 232.741 254.509 235.697 239.462 232.858C224.415 230.019 205.751 221.423 184.673 198.324C184.518 198.155 184.331 198.017 184.123 197.919C183.915 197.822 183.69 197.766 183.46 197.756C183.23 197.745 183.001 197.78 182.785 197.858C182.569 197.936 182.37 198.056 182.2 198.211C182.03 198.366 181.893 198.553 181.795 198.761C181.698 198.969 181.642 199.194 181.631 199.424C181.621 199.654 181.656 199.883 181.734 200.099C181.812 200.315 181.932 200.514 182.087 200.684C203.569 224.225 223.011 233.316 238.812 236.297C254.612 239.278 266.856 236.187 273.226 235.801C280.016 235.394 286.285 234.845 291.001 234.053C293.359 233.657 295.32 233.212 296.853 232.633C297.619 232.343 298.282 232.027 298.87 231.58C299.458 231.134 300.046 230.475 300.19 229.541C302.115 217.047 300.311 210.566 297.534 207.133C294.758 203.7 290.942 203.809 290.942 203.809L291.249 203.819C291.249 203.819 279.538 202.522 269.657 203.731C265.723 204.216 259.16 201.732 253.175 198.481C247.191 195.23 241.708 191.378 239.114 189.596C222.751 178.353 206.919 172.934 196.931 172.838L196.925 172.83Z" fill="black"/>
<path d="M204.388 156.418C203.929 156.352 203.462 156.471 203.091 156.749C202.719 157.027 202.473 157.441 202.407 157.9C202.374 158.128 202.387 158.359 202.443 158.582C202.5 158.805 202.6 159.014 202.738 159.198C202.875 159.382 203.048 159.538 203.246 159.655C203.443 159.772 203.662 159.85 203.89 159.882C203.89 159.882 207.477 160.429 210.499 162.959C213.521 165.488 216.114 169.744 213.892 178.488C213.835 178.711 213.823 178.942 213.856 179.17C213.889 179.397 213.966 179.616 214.084 179.814C214.202 180.011 214.357 180.183 214.541 180.321C214.725 180.458 214.934 180.558 215.157 180.615C215.607 180.729 216.083 180.66 216.482 180.423C216.881 180.186 217.17 179.801 217.284 179.351C219.752 169.645 216.621 163.516 212.745 160.273C208.87 157.03 204.388 156.418 204.388 156.418Z" fill="black"/>
<path d="M195.489 152.617C171.235 159.523 156.112 186.855 149.529 198.424C140.652 214.024 136.762 230.687 135.579 245.115C134.397 259.542 135.889 271.688 137.964 278.574C140.046 285.494 143.909 289.544 148.63 290.982C153.351 292.42 158.605 291.351 163.712 289.113C191.123 277.115 205.645 259.68 210.517 253.818C213.26 250.511 214.279 246.499 214.271 242.797C214.261 239.094 213.278 235.675 211.786 233.215C210.779 231.553 210.077 228.409 209.759 225.771C209.441 223.133 209.431 221.013 209.431 221.013C209.43 220.784 209.384 220.556 209.295 220.344C209.206 220.132 209.076 219.94 208.913 219.778C208.75 219.616 208.556 219.488 208.343 219.401C208.131 219.314 207.903 219.27 207.673 219.271C207.209 219.273 206.765 219.46 206.438 219.789C206.111 220.119 205.929 220.565 205.931 221.029C205.931 221.029 205.941 223.339 206.284 226.191C206.629 229.043 207.231 232.45 208.794 235.029C209.873 236.809 210.764 239.744 210.771 242.804C210.781 245.865 209.95 249.021 207.823 251.584C202.955 257.442 188.997 274.226 162.308 285.908C157.645 287.95 153.186 288.712 149.65 287.634C146.113 286.557 143.174 283.748 141.316 277.568C139.44 271.344 137.92 259.427 139.07 245.404C140.219 231.382 144.008 215.21 152.572 200.16C159.168 188.569 174.205 162.32 196.45 155.986C196.897 155.859 197.274 155.559 197.5 155.154C197.725 154.749 197.781 154.27 197.654 153.824C197.526 153.378 197.227 153 196.822 152.775C196.416 152.549 195.938 152.494 195.491 152.621L195.489 152.617Z" fill="black"/>
<path d="M207.779 254.35C207.779 254.35 236.809 241.03 254.429 238.63C272.039 236.24 349.689 236.25 362.649 236.53C375.619 236.8 378.469 241.35 378.649 247.57C378.829 253.8 376.119 265.88 367.279 274.45C365.339 276.33 358.179 278.51 345.009 279.5C331.839 280.49 294.909 282.21 286.009 283.45C277.099 284.69 272.149 294.61 268.299 300.02C263.349 307.01 244.729 329.79 205.889 333.17C188.229 334.7 161.499 333.29 149.039 289.27C153.189 290.58 158.089 289.67 163.009 287.51C187.839 276.64 201.879 261.32 207.779 254.35Z" fill="black"/>
<path d="M362.685 234.781C356.129 234.639 333.512 234.566 310.263 234.828C287.013 235.089 263.337 235.655 254.192 236.896C235.969 239.379 207.048 252.759 207.048 252.759C206.815 252.866 206.608 253.023 206.442 253.218C200.61 260.109 186.806 275.181 162.308 285.906C157.614 287.967 153.118 288.72 149.567 287.599C149.266 287.504 148.945 287.492 148.638 287.565C148.331 287.638 148.049 287.792 147.822 288.012C147.596 288.232 147.433 288.509 147.351 288.814C147.269 289.119 147.271 289.44 147.357 289.744C153.675 312.065 163.774 323.925 174.681 329.838C185.587 335.75 197.09 335.687 206.042 334.912C245.505 331.478 264.613 308.252 269.726 301.033C273.75 295.377 278.513 286.262 286.247 285.185C290.479 284.596 302.022 283.839 314.007 283.131C325.992 282.422 338.504 281.744 345.136 281.246C351.793 280.745 356.957 279.946 360.769 279.009C364.58 278.073 366.993 277.162 368.493 275.709C377.795 266.691 380.59 254.323 380.394 247.521C380.297 244.157 379.38 240.808 376.556 238.472C373.732 236.137 369.369 234.922 362.683 234.783L362.685 234.781ZM362.611 238.279C368.894 238.41 372.439 239.606 374.327 241.168C376.215 242.729 376.815 244.765 376.898 247.621C377.061 253.279 374.436 265.071 366.058 273.193C365.617 273.62 363.48 274.738 359.935 275.609C356.389 276.48 351.389 277.264 344.876 277.754C338.338 278.245 325.799 278.925 313.802 279.634C301.805 280.344 290.433 281.066 285.765 281.717C275.68 283.12 270.545 293.842 266.87 299.006C262.08 305.77 243.949 328.098 205.738 331.424C197.029 332.178 186.336 332.176 176.347 326.761C166.8 321.586 157.74 311.327 151.591 291.496C155.499 291.874 159.648 290.894 163.71 289.111C188.552 278.235 202.706 262.989 208.806 255.818C209.319 255.585 237.796 242.661 254.661 240.363C263.126 239.214 287.083 238.589 310.3 238.328C333.517 238.067 356.203 238.141 362.608 238.279L362.611 238.279Z" fill="black"/>
<path d="M402.739 231.685C400.493 231.799 397.979 232.83 394.8 234.941C392.114 236.732 387.649 238.237 383.925 239.203C380.201 240.168 377.228 240.638 377.228 240.638C377.001 240.674 376.783 240.755 376.587 240.875C376.391 240.995 376.221 241.152 376.086 241.338C375.95 241.524 375.853 241.735 375.8 241.958C375.746 242.182 375.737 242.413 375.773 242.64C375.845 243.099 376.097 243.51 376.472 243.782C376.848 244.055 377.316 244.168 377.775 244.095C377.775 244.095 380.906 243.601 384.802 242.591C388.697 241.582 393.365 240.104 396.739 237.855C399.629 235.937 401.664 235.245 402.917 235.181C404.171 235.117 404.736 235.471 405.415 236.256C405.728 236.615 406.126 238.174 405.658 240.123C405.189 242.072 404.016 244.309 402.091 246.076C397.537 250.268 383.733 264.434 381.382 266.855C380.293 267.98 378.616 269.227 377.276 269.551C376.606 269.713 376.066 269.688 375.523 269.449C374.979 269.21 374.354 268.71 373.696 267.593C373.58 267.395 373.425 267.222 373.242 267.084C373.058 266.946 372.849 266.845 372.627 266.787C372.404 266.73 372.172 266.717 371.945 266.749C371.717 266.781 371.498 266.858 371.3 266.974C371.102 267.091 370.929 267.246 370.791 267.429C370.652 267.613 370.552 267.822 370.494 268.044C370.437 268.267 370.423 268.499 370.455 268.726C370.488 268.954 370.564 269.173 370.681 269.371C371.613 270.954 372.783 272.069 374.114 272.654C375.446 273.24 376.86 273.25 378.099 272.951C380.575 272.353 382.533 270.696 383.894 269.291C386.224 266.89 400.213 252.561 404.46 248.652C406.935 246.379 408.432 243.568 409.064 240.937C409.695 238.308 409.623 235.759 408.06 233.959C406.869 232.585 404.984 231.567 402.739 231.681V231.685Z" fill="black"/>
<path d="M384.552 264.719C384.326 264.677 384.094 264.681 383.869 264.73C383.645 264.778 383.431 264.87 383.242 265.001C383.053 265.132 382.892 265.299 382.768 265.492C382.643 265.685 382.558 265.901 382.517 266.127L348.149 455.594L270.063 496.226L265.614 328.474C266.016 327.87 269.213 323.098 274.483 317.17C280.096 310.857 287.767 303.723 295.618 300.359C295.829 300.269 296.021 300.137 296.181 299.973C296.342 299.808 296.468 299.613 296.553 299.4C296.639 299.186 296.681 298.958 296.678 298.728C296.675 298.498 296.627 298.272 296.536 298.06C296.353 297.634 296.009 297.297 295.578 297.125C295.147 296.952 294.666 296.958 294.239 297.14C285.52 300.876 277.652 308.336 271.866 314.844C266.081 321.351 262.386 326.978 262.386 326.978C262.189 327.277 262.089 327.629 262.099 327.986L266.64 499.117C266.648 499.414 266.731 499.703 266.882 499.959C267.032 500.214 267.245 500.427 267.501 500.578C267.757 500.728 268.046 500.812 268.343 500.819C268.639 500.827 268.933 500.76 269.196 500.623L350.526 458.303C350.763 458.179 350.969 458.003 351.127 457.788C351.286 457.573 351.393 457.325 351.44 457.062L385.96 266.752C386.043 266.295 385.941 265.825 385.677 265.444C385.412 265.062 385.008 264.802 384.552 264.719Z" fill="black"/>
<path d="M365.56 207.718C363.154 207.442 360.909 207.964 358.985 208.466C355.517 209.382 346.827 210.687 346.827 210.687C346.6 210.721 346.381 210.799 346.184 210.916C345.987 211.034 345.815 211.19 345.678 211.374C345.54 211.559 345.441 211.769 345.385 211.992C345.329 212.215 345.317 212.446 345.351 212.674C345.384 212.901 345.462 213.12 345.581 213.317C345.699 213.514 345.855 213.686 346.039 213.823C346.224 213.96 346.434 214.059 346.657 214.115C346.88 214.171 347.111 214.182 347.339 214.148C347.339 214.148 355.84 212.915 359.874 211.851H359.884C361.708 211.375 363.532 211.007 365.167 211.195C366.804 211.383 368.294 212.016 369.863 213.93C371.586 216.037 372.756 218.242 372.874 219.273C372.933 219.789 372.884 219.851 372.736 219.988C372.591 220.126 372.064 220.423 370.866 220.492C370.403 220.519 369.969 220.728 369.661 221.075C369.352 221.421 369.193 221.876 369.22 222.34C369.247 222.803 369.457 223.237 369.803 223.546C370.149 223.854 370.604 224.013 371.068 223.986C372.745 223.89 374.141 223.486 375.152 222.521C376.162 221.557 376.493 220.116 376.351 218.875C376.067 216.391 374.488 214.055 372.572 211.713C370.5 209.186 367.975 207.997 365.57 207.72L365.56 207.718Z" fill="black"/>
<path d="M365.431 214.006C365.265 213.846 365.069 213.722 364.855 213.638C364.641 213.555 364.412 213.515 364.182 213.519C363.953 213.524 363.726 213.574 363.516 213.667C363.305 213.759 363.115 213.893 362.956 214.059C362.797 214.224 362.672 214.42 362.588 214.634C362.505 214.848 362.464 215.077 362.469 215.306C362.474 215.536 362.524 215.763 362.616 215.973C362.708 216.184 362.841 216.374 363.007 216.533C363.007 216.533 364.514 217.979 366.183 219.672C367.851 221.365 369.76 223.465 370.175 224.1C370.707 224.911 370.88 225.579 370.888 225.916C370.898 226.253 370.86 226.173 370.878 226.158C370.875 226.158 370.871 226.158 370.868 226.158C370.914 226.127 370.89 226.235 370.333 226.035C369.777 225.835 368.86 225.285 367.751 224.281C365.366 222.111 360.354 217.26 360.354 217.26C360.189 217.1 359.994 216.974 359.78 216.89C359.567 216.805 359.338 216.764 359.108 216.767C358.879 216.771 358.652 216.82 358.441 216.912C358.23 217.003 358.04 217.136 357.88 217.301C357.72 217.466 357.594 217.66 357.509 217.874C357.425 218.088 357.383 218.316 357.387 218.546C357.39 218.776 357.439 219.003 357.53 219.214C357.622 219.424 357.754 219.615 357.919 219.775C357.919 219.775 362.903 224.602 365.399 226.873C366.728 228.077 367.935 228.891 369.151 229.328C370.365 229.765 371.759 229.783 372.835 229.055C373.894 228.339 374.413 227.041 374.383 225.828C374.354 224.613 373.897 223.396 373.098 222.178C372.184 220.782 370.382 218.945 368.672 217.211C366.963 215.477 365.426 214.002 365.426 214.002L365.431 214.006Z" fill="black"/>
<path d="M352.735 220.232C352.558 220.085 352.354 219.975 352.135 219.907C351.915 219.839 351.684 219.815 351.455 219.837C351.226 219.858 351.004 219.924 350.801 220.032C350.597 220.139 350.417 220.286 350.271 220.463C350.124 220.64 350.014 220.844 349.946 221.064C349.878 221.283 349.854 221.514 349.876 221.743C349.898 221.972 349.964 222.195 350.072 222.398C350.179 222.601 350.326 222.781 350.503 222.928C350.503 222.928 352.918 224.929 355.743 227.137C358.568 229.344 361.636 231.7 363.649 232.713C365.656 233.73 367.982 233.739 369.37 232.263C370.76 230.787 370.78 228.58 369.962 226.347C369.883 226.132 369.762 225.933 369.606 225.764C369.451 225.595 369.263 225.458 369.055 225.362C368.846 225.265 368.62 225.21 368.391 225.201C368.161 225.191 367.932 225.227 367.716 225.306C367.5 225.386 367.302 225.506 367.133 225.662C366.963 225.818 366.827 226.005 366.73 226.214C366.633 226.422 366.579 226.648 366.569 226.878C366.56 227.107 366.596 227.337 366.675 227.553C367.227 229.06 366.912 229.769 366.821 229.865C366.73 229.961 366.434 230.2 365.231 229.59C365.228 229.59 365.225 229.59 365.221 229.59C364.014 228.982 360.675 226.555 357.895 224.383C355.116 222.21 352.731 220.236 352.731 220.236L352.735 220.232Z" fill="black"/>
<path d="M320.528 218.58C319.116 218.608 317.672 218.729 316.218 218.949C311.58 219.655 298.89 221.498 298.89 221.498C298.431 221.564 298.017 221.811 297.739 222.183C297.462 222.554 297.343 223.021 297.409 223.48C297.476 223.939 297.722 224.353 298.094 224.631C298.466 224.908 298.933 225.027 299.392 224.961C299.392 224.961 312.058 223.123 316.741 222.41C321.925 221.628 327.126 222.368 330.179 223.82C333.983 225.64 340.078 227.586 344.4 226.941C344.595 226.912 345.516 227.062 346.612 227.578C347.709 228.093 348.997 228.882 350.249 229.722C351.501 230.563 352.722 231.455 353.753 232.193C354.785 232.932 355.434 233.474 356.362 233.851C357.563 234.336 359.211 234.755 361.021 234.297C361.925 234.067 362.999 233.428 363.46 232.297C363.921 231.165 363.727 229.936 363.192 228.654C363.104 228.442 362.975 228.249 362.812 228.087C362.649 227.925 362.456 227.797 362.243 227.709C362.03 227.622 361.803 227.577 361.573 227.578C361.343 227.578 361.116 227.624 360.903 227.713C360.691 227.801 360.499 227.93 360.337 228.093C360.174 228.256 360.046 228.449 359.959 228.662C359.871 228.875 359.826 229.102 359.827 229.332C359.828 229.562 359.873 229.79 359.962 230.002C360.297 230.805 360.182 231.065 360.218 230.976C360.254 230.887 360.4 230.843 360.161 230.904C359.684 231.025 358.186 230.81 357.675 230.605C357.754 230.637 356.794 230.068 355.786 229.346C354.777 228.624 353.524 227.706 352.196 226.814C350.868 225.923 349.47 225.053 348.097 224.408C346.723 223.763 345.392 223.251 343.878 223.476C341.361 223.852 334.898 222.199 331.682 220.66C328.707 219.244 324.767 218.495 320.53 218.58L320.528 218.58Z" fill="black"/>
<path d="M358.431 202.398C357.519 202.367 356.539 202.52 355.56 202.968C353.052 204.117 347.626 204.985 343.761 206.5C338.066 208.746 327.153 208.122 317.833 207.64C308.532 207.18 296.351 206.59 296.351 206.59C296.121 206.579 295.892 206.613 295.675 206.691C295.459 206.768 295.26 206.888 295.09 207.042C294.92 207.197 294.782 207.383 294.684 207.591C294.586 207.799 294.53 208.024 294.519 208.254C294.508 208.483 294.542 208.713 294.62 208.929C294.697 209.145 294.817 209.344 294.971 209.514C295.126 209.684 295.312 209.823 295.52 209.921C295.728 210.019 295.953 210.075 296.183 210.086C296.183 210.086 308.361 210.676 317.659 211.136C326.92 211.615 337.867 212.592 345.052 209.758C348.227 208.513 353.558 207.739 357.03 206.148C358.062 205.676 358.671 205.8 359.589 206.175C360.507 206.551 361.542 207.299 362.888 207.841C363.101 207.927 363.329 207.97 363.559 207.968C363.789 207.966 364.016 207.918 364.228 207.828C364.439 207.738 364.631 207.607 364.792 207.443C364.953 207.278 365.079 207.084 365.165 206.871C365.338 206.44 365.333 205.959 365.152 205.532C364.97 205.106 364.626 204.769 364.196 204.595C363.432 204.287 362.342 203.519 360.915 202.935C360.202 202.643 359.357 202.427 358.445 202.396L358.431 202.398Z" fill="black"/>
<path d="M507.71 157.99C472.605 158.355 454.045 158.995 442.71 160.342C431.375 161.688 427.102 163.875 421.476 166.967C418.122 168.809 407.965 175.035 394.944 183.109C381.924 191.183 366.13 201.057 351.829 210.017C351.436 210.264 351.157 210.657 351.053 211.109C350.95 211.561 351.03 212.036 351.276 212.429C351.523 212.823 351.916 213.102 352.368 213.205C352.82 213.309 353.295 213.229 353.689 212.982C367.987 204.023 383.778 194.152 396.79 186.084C409.802 178.015 420.125 171.701 423.161 170.033C428.764 166.955 432.107 165.127 443.124 163.818C454.141 162.51 472.672 161.855 507.747 161.49C509.434 161.471 510.738 161.636 511.554 161.922C512.37 162.207 512.655 162.485 512.862 162.953C513.277 163.89 513.011 166.66 510.794 171.398C504.652 184.525 500.829 191.757 497.616 196.297C494.403 200.836 491.849 202.742 487.73 205.566C483.779 208.278 457.133 225.335 431.671 241.578C406.209 257.821 381.782 273.353 381.782 273.353C381.588 273.477 381.42 273.637 381.288 273.825C381.156 274.013 381.062 274.225 381.012 274.45C380.962 274.674 380.957 274.906 380.996 275.132C381.036 275.359 381.12 275.575 381.243 275.769C381.367 275.963 381.527 276.131 381.715 276.263C381.903 276.395 382.116 276.489 382.34 276.538C382.564 276.588 382.796 276.593 383.023 276.554C383.249 276.514 383.465 276.43 383.659 276.306C383.659 276.306 408.089 260.774 433.554 244.529C459.019 228.285 485.37 211.432 489.71 208.453C493.891 205.587 497.011 203.214 500.476 198.318C503.94 193.423 507.798 186.064 513.966 172.881C516.319 167.849 517.321 164.38 516.066 161.539C515.438 160.119 514.156 159.122 512.712 158.617C511.268 158.112 509.62 157.969 507.712 157.99H507.71ZM332.858 221.928C320.517 229.679 311.974 235.07 311.974 235.07C311.581 235.318 311.303 235.712 311.201 236.164C311.099 236.617 311.181 237.092 311.429 237.484C311.677 237.877 312.07 238.154 312.523 238.257C312.976 238.359 313.45 238.277 313.843 238.029C313.843 238.029 322.381 232.641 334.72 224.892C334.915 224.77 335.083 224.611 335.216 224.423C335.35 224.236 335.445 224.024 335.496 223.8C335.547 223.575 335.553 223.343 335.515 223.117C335.476 222.89 335.393 222.673 335.271 222.478C335.024 222.085 334.631 221.807 334.179 221.703C333.726 221.6 333.251 221.681 332.858 221.928Z" fill="black"/>
<path fill-rule="evenodd" clip-rule="evenodd" d="M312.909 236.55C312.909 236.55 321.449 231.16 333.789 223.41L312.909 236.55Z" fill="black"/>
<path d="M221.816 162.271C221.627 162.14 221.414 162.048 221.189 161.999C220.964 161.951 220.732 161.947 220.506 161.988C220.28 162.029 220.064 162.115 219.871 162.239C219.678 162.364 219.511 162.525 219.38 162.715C219.116 163.096 219.015 163.567 219.098 164.023C219.181 164.479 219.442 164.884 219.823 165.148C219.823 165.148 227.982 170.796 237.612 177.123C247.243 183.45 258.246 190.425 264.386 193.259C276.546 198.868 291.042 199.665 298.689 201.701C306.965 203.906 321.596 205.945 331.956 205.367C342.077 204.792 350.165 203.539 350.165 203.539C350.624 203.468 351.035 203.217 351.309 202.843C351.583 202.469 351.697 202.001 351.626 201.543C351.591 201.315 351.512 201.097 351.392 200.901C351.273 200.704 351.116 200.533 350.93 200.397C350.745 200.261 350.534 200.163 350.311 200.109C350.087 200.054 349.855 200.044 349.628 200.08C349.628 200.08 341.697 201.308 331.759 201.873C322.059 202.414 307.371 200.393 299.587 198.318C291.154 196.074 277.15 195.29 265.851 190.08C260.27 187.503 249.123 180.499 239.534 174.199C229.945 167.899 221.816 162.271 221.816 162.271Z" fill="black"/>
<path fill-rule="evenodd" clip-rule="evenodd" d="M455.909 161.02C462.069 160.67 469.619 160.4 479.029 160.18C479.029 160.18 457.169 178.1 452.339 182.17C435.739 196.15 425.549 198.58 419.599 198.31C413.639 198.04 412.179 193.57 415.609 191.57C421.669 188.05 455.909 161.02 455.909 161.02Z" fill="black"/>
<path d="M143.491 382.4C143.099 382.153 142.625 382.072 142.172 382.174C141.72 382.277 141.327 382.555 141.079 382.947C141.079 382.947 130.603 399.556 119.243 418.746C107.884 437.936 95.6804 459.514 92.0031 470.264C91.5792 471.501 90.9293 472.605 90.2824 473.349C89.6625 474.063 89.0745 474.318 88.9543 474.349C88.9323 474.326 88.8892 474.307 88.7882 474.051C88.5318 473.395 88.3125 471.807 88.5695 469.299C89.12 463.875 89.9425 451.048 90.7336 438.963C91.1292 432.92 91.5164 427.074 91.8527 422.472C92.1885 417.877 92.5101 414.363 92.6496 413.584C92.6496 413.564 93.3115 410.032 97.2101 404.941C101.12 399.837 108.246 393.361 121.23 388.166C121.66 387.993 122.005 387.657 122.187 387.231C122.37 386.805 122.376 386.323 122.204 385.892C122.119 385.679 121.992 385.484 121.832 385.32C121.671 385.155 121.48 385.024 121.268 384.934C121.057 384.843 120.83 384.795 120.6 384.793C120.37 384.79 120.142 384.832 119.929 384.918C106.422 390.323 98.7238 397.207 94.4308 402.812C90.1378 408.418 89.2121 412.926 89.2121 412.926C89.2087 412.934 89.2053 412.942 89.2021 412.951C88.9463 414.372 88.6942 417.596 88.3564 422.218C88.0186 426.84 87.6329 432.69 87.2373 438.734C86.4459 450.821 85.6125 463.728 85.083 468.945C84.7952 471.755 84.9119 473.762 85.5244 475.327C85.8307 476.11 86.2933 476.809 86.9737 477.29C87.654 477.772 88.5248 477.958 89.2841 477.872C90.8027 477.701 91.9311 476.785 92.9208 475.646C93.9104 474.507 94.7434 473.05 95.3095 471.398C98.6722 461.568 110.921 439.671 122.251 420.531C133.581 401.39 144.034 384.816 144.034 384.816C144.157 384.621 144.24 384.405 144.279 384.178C144.318 383.952 144.311 383.72 144.261 383.495C144.21 383.271 144.116 383.059 143.983 382.872C143.85 382.684 143.682 382.524 143.487 382.402L143.491 382.4Z" fill="black"/>
<path d="M165.161 325.275C164.709 325.171 164.234 325.25 163.841 325.496C163.841 325.496 153.302 332.091 142.298 338.953C131.295 345.814 119.66 353.037 118.017 353.982C118.281 353.83 117.803 354.048 117.153 354.162C116.504 354.275 115.586 354.396 114.454 354.519C112.19 354.766 109.064 355.027 105.292 355.336C97.7488 355.953 87.6088 356.761 76.3605 358.054C53.8638 360.641 26.9589 365.134 7.23552 374.097C4.46952 375.353 2.70801 376.485 1.63201 377.9C1.09391 378.607 0.737046 379.446 0.717946 380.32C0.698946 381.194 1.02796 382.007 1.47966 382.629C2.38316 383.871 3.6911 384.594 5.1281 385.236C6.5651 385.878 8.16459 386.381 9.68279 386.791C12.3289 387.5 22.9898 391.14 33.8625 395.285C44.7343 399.428 56.1427 404.249 60.2375 406.959C69.3851 413.023 78.5012 417.239 90.9758 415.941C91.2045 415.917 91.4261 415.849 91.6283 415.739C91.8306 415.63 92.0093 415.482 92.1542 415.303C92.2992 415.125 92.4075 414.92 92.4731 414.699C92.5386 414.479 92.5601 414.248 92.5363 414.019C92.5126 413.791 92.4443 413.569 92.3349 413.366C92.2255 413.164 92.0771 412.986 91.8986 412.841C91.7201 412.696 91.515 412.587 91.2946 412.522C91.0742 412.456 90.8431 412.435 90.6144 412.459C79.069 413.66 71.0634 409.936 62.1711 404.041C57.2451 400.78 46.0509 396.186 35.1086 392.015C24.1662 387.844 13.8009 384.271 10.5871 383.41C9.17529 383.029 7.71762 382.561 6.54802 382.038C5.37842 381.516 4.52973 380.883 4.30193 380.57C4.18803 380.413 4.20794 380.4 4.20794 380.394C4.20804 380.384 4.19789 380.293 4.40899 380.017C4.82889 379.465 6.16573 378.422 8.67473 377.283C27.7012 368.636 54.4001 364.101 76.7508 361.531C87.9262 360.245 98.0212 359.441 105.571 358.824C109.346 358.515 112.482 358.255 114.825 358C115.997 357.872 116.968 357.746 117.749 357.609C118.53 357.472 119.023 357.437 119.753 357.017C121.83 355.822 133.135 348.785 144.142 341.922C155.148 335.058 165.688 328.463 165.688 328.463C165.883 328.341 166.052 328.182 166.186 327.995C166.319 327.807 166.415 327.596 166.466 327.372C166.518 327.148 166.525 326.916 166.487 326.689C166.449 326.462 166.367 326.245 166.245 326.05C165.998 325.657 165.606 325.379 165.153 325.275H165.161Z" fill="black"/>
<path fill-rule="evenodd" clip-rule="evenodd" d="M179.199 341.3C180.939 340.02 182.779 339.22 185.599 341.12C188.429 343.03 190.449 345.22 187.159 347.7C183.869 350.19 164.419 364.67 161.649 366.23C158.879 367.79 154.359 367.61 150.159 364.56C146.349 361.79 177.229 342.74 179.199 341.3Z" fill="black"/>
<path d="M264.743 347.472C264.288 347.383 263.816 347.479 263.431 347.738C263.431 347.738 241.65 362.412 217.876 378.203C194.102 393.994 168.195 410.977 160.452 415.324C143.596 424.772 130.582 425.154 119.103 421.627C118.883 421.559 118.652 421.535 118.423 421.557C118.194 421.578 117.972 421.645 117.769 421.753C117.566 421.86 117.386 422.007 117.239 422.184C117.093 422.361 116.983 422.565 116.915 422.785C116.848 423.005 116.824 423.236 116.846 423.465C116.868 423.694 116.934 423.916 117.042 424.119C117.15 424.322 117.296 424.502 117.474 424.649C117.651 424.795 117.855 424.905 118.075 424.972C130.356 428.745 144.661 428.188 162.165 418.377C170.382 413.764 196.026 396.918 219.812 381.119C243.597 365.32 265.386 350.642 265.386 350.642C265.771 350.383 266.037 349.982 266.126 349.527C266.215 349.071 266.119 348.6 265.861 348.215C265.732 348.024 265.567 347.86 265.376 347.733C265.184 347.606 264.969 347.518 264.743 347.474V347.472Z" fill="black"/>
</g>
<defs>
<clipPath id="clip0_1_193">
<rect width="516.611" height="511.98" fill="white" transform="translate(0 0.679443)"/>
</clipPath>
</defs>
</svg>
