<svg width="200" height="200" viewBox="0 0 200 200" fill="none" xmlns="http://www.w3.org/2000/svg">
<g clip-path="url(#clip0_255_2)">
<rect width="200" height="200" fill="white"/>
<g clip-path="url(#clip1_255_2)">
<path fill-rule="evenodd" clip-rule="evenodd" d="M85.6905 143.662C85.6905 144.685 85.3216 145.667 84.6648 146.391C84.008 147.115 83.1172 147.521 82.1884 147.521C81.2596 147.521 80.3688 147.115 79.712 146.391C79.0552 145.667 78.6863 144.685 78.6863 143.662C78.6863 143.155 78.7769 142.653 78.9529 142.185C79.1289 141.717 79.3868 141.291 79.712 140.933C80.0372 140.574 80.4233 140.29 80.8482 140.096C81.2731 139.902 81.7285 139.802 82.1884 139.802C82.6483 139.802 83.1037 139.902 83.5286 140.096C83.9535 140.29 84.3396 140.574 84.6648 140.933C84.99 141.291 85.2479 141.717 85.4239 142.185C85.5999 142.653 85.6905 143.155 85.6905 143.662Z" fill="black"/>
<path d="M130.306 155.127C125.87 155.276 68.2295 156.552 57.7291 156.212C57.5812 156.207 57.4373 156.26 57.3277 156.359C57.2181 156.458 57.1513 156.596 57.1414 156.744C57.1414 156.744 57.066 157.759 57.3407 158.823C57.4781 159.355 57.703 159.917 58.1156 160.378C58.5282 160.838 59.1548 161.172 59.9186 161.188C60.5823 161.202 64.7045 161.212 70.6128 161.22C76.5211 161.228 84.1802 161.232 91.8032 161.232C99.4263 161.232 107.013 161.228 112.777 161.217C115.658 161.211 118.084 161.204 119.832 161.195C120.705 161.191 121.409 161.186 121.917 161.18C122.424 161.175 122.685 161.174 122.849 161.161C123.303 161.126 123.984 160.957 124.905 160.712C125.826 160.467 126.939 160.145 128.061 159.806C130.305 159.128 132.549 158.396 133.417 158.042C133.83 157.874 134.185 157.647 134.427 157.301C134.547 157.127 134.64 156.912 134.645 156.668C134.65 156.424 134.555 156.17 134.401 155.981C134.093 155.602 133.628 155.414 132.975 155.28C132.322 155.147 131.459 155.088 130.306 155.127ZM130.344 156.267C131.437 156.23 132.227 156.291 132.747 156.398C133.223 156.495 133.4 156.631 133.451 156.675C133.387 156.751 133.234 156.885 132.987 156.985C132.256 157.283 129.958 158.04 127.731 158.713C126.618 159.05 125.514 159.369 124.612 159.609C123.711 159.849 122.965 160.008 122.762 160.024C122.762 160.024 122.408 160.034 121.905 160.039C121.401 160.045 120.698 160.05 119.826 160.054C118.081 160.063 115.656 160.07 112.775 160.076C107.012 160.087 99.4258 160.091 91.8032 160.091C84.1807 160.091 76.5217 160.087 70.6141 160.079C64.7065 160.071 60.515 160.059 59.9422 160.047C59.4696 160.037 59.201 159.88 58.9655 159.617C58.73 159.354 58.5539 158.959 58.4453 158.538C58.3345 158.109 58.2946 157.679 58.2811 157.352C69.7864 157.665 125.841 156.419 130.344 156.267Z" fill="black"/>
<path fill-rule="evenodd" clip-rule="evenodd" d="M57.7104 156.782C57.7104 156.782 57.4578 160.567 59.9306 160.618C62.4035 160.668 121.494 160.693 122.806 160.592C124.118 160.491 131.603 158.165 133.202 157.514C134.564 156.959 134.817 155.546 130.325 155.697C125.834 155.849 68.3232 157.126 57.7104 156.782Z" fill="black"/>
<path d="M107.168 125.825C106.29 125.825 95.365 125.95 84.3097 126.077C73.2545 126.203 62.0848 126.329 60.9916 126.329C59.8824 126.329 59.111 126.185 58.3729 126.577C58.0038 126.773 57.718 127.124 57.535 127.556C57.3521 127.988 57.2383 128.515 57.1384 129.216C57.0227 130.028 56.9878 132.024 56.9703 134.732C56.9529 137.441 56.9662 140.793 56.9913 144.061C57.0415 150.596 57.1403 156.791 57.1403 156.791C57.1415 156.866 57.1574 156.94 57.1871 157.009C57.2169 157.078 57.2599 157.14 57.3137 157.192C57.3675 157.244 57.431 157.285 57.5007 157.313C57.5703 157.34 57.6447 157.354 57.7197 157.353C57.8709 157.35 58.0149 157.288 58.1201 157.179C58.2252 157.07 58.283 156.925 58.2806 156.773C58.2806 156.773 58.1824 150.582 58.1322 144.053C58.1071 140.788 58.0938 137.438 58.1112 134.739C58.1286 132.04 58.1902 129.922 58.2679 129.377C58.3612 128.722 58.4706 128.272 58.5856 128C58.7006 127.729 58.7875 127.649 58.9084 127.585C59.15 127.457 59.8296 127.47 60.9916 127.47C62.1694 127.47 73.2678 127.344 84.3231 127.218C95.3784 127.091 106.407 126.966 107.168 126.966C107.893 126.966 108.148 127.088 108.356 127.404C108.565 127.719 108.713 128.402 108.743 129.502C108.8 131.53 107.886 152.49 107.238 156.104C107.225 156.178 107.227 156.254 107.243 156.327C107.259 156.4 107.289 156.469 107.332 156.531C107.374 156.592 107.429 156.645 107.492 156.685C107.555 156.726 107.625 156.753 107.699 156.766C107.848 156.793 108.001 156.76 108.126 156.673C108.25 156.587 108.335 156.455 108.361 156.306C109.103 152.167 109.953 131.984 109.884 129.47C109.851 128.3 109.746 127.437 109.308 126.774C108.87 126.111 108.083 125.825 107.168 125.825Z" fill="black"/>
<path d="M70.9377 70.0386C70.1678 69.9897 69.3675 70.033 68.5406 70.1697C68.3913 70.1944 68.258 70.2773 68.1699 70.4003C68.0817 70.5233 68.0461 70.6762 68.0707 70.8255C68.0954 70.9748 68.1783 71.1081 68.3013 71.1962C68.4243 71.2844 68.5772 71.32 68.7265 71.2954C71.7317 70.7985 74.1214 71.5928 76.1329 73.7096C76.1846 73.764 76.2464 73.8076 76.3148 73.838C76.3833 73.8684 76.4571 73.885 76.5321 73.8869C76.607 73.8888 76.6815 73.876 76.7514 73.849C76.8214 73.8221 76.8853 73.7817 76.9396 73.73C77.0491 73.6258 77.1128 73.4823 77.1166 73.3312C77.1204 73.1801 77.0641 73.0336 76.96 72.924C75.2845 71.1607 73.2473 70.1852 70.9377 70.0386Z" fill="black"/>
<path d="M84.6604 73.8853C83.5109 73.8481 82.4365 74.1969 81.4745 74.8047C81.3466 74.8855 81.2561 75.0138 81.2227 75.1614C81.1894 75.3089 81.2161 75.4637 81.2969 75.5916C81.3777 75.7195 81.506 75.8101 81.6536 75.8434C81.8012 75.8767 81.9559 75.85 82.0838 75.7693C83.1684 75.084 84.2583 74.8278 85.5486 75.1606C85.6211 75.1794 85.6966 75.1837 85.7708 75.1733C85.845 75.1629 85.9165 75.1379 85.981 75.0999C86.0456 75.0619 86.102 75.0115 86.1471 74.9517C86.1922 74.8919 86.2251 74.8237 86.2439 74.7512C86.2626 74.6786 86.2669 74.6031 86.2564 74.5289C86.246 74.4546 86.221 74.3832 86.1829 74.3186C86.1449 74.254 86.0944 74.1976 86.0345 74.1525C85.9746 74.1075 85.9064 74.0747 85.8338 74.056C85.4353 73.9532 85.0436 73.8978 84.6604 73.8853Z" fill="black"/>
<path d="M68.6602 41.012C66.6158 41.1239 64.6325 42.0267 63.2918 43.8019C62.0727 45.4159 61.4469 47.7568 61.6453 50.755C61 50.5442 60.1043 50.3052 58.9178 50.2368C56.9278 50.122 54.4149 50.6232 52.7535 52.9967C50.848 55.7185 50.0403 59.3851 49.8095 62.2896C49.8095 62.2899 49.8095 62.2901 49.8095 62.2903C49.7316 63.2735 49.4185 66.0348 49.5167 69.1046C49.6149 72.1745 50.0977 75.5865 51.7489 77.999C52.7836 79.5108 54.3686 79.9332 55.7542 79.7428C57.1398 79.5524 58.3716 78.848 59.098 78.0645C59.4565 77.6777 59.7153 77.2877 59.5927 76.8007C59.5314 76.5573 59.3623 76.3687 59.2005 76.2589C59.0387 76.1491 58.8769 76.092 58.7147 76.0488C58.0661 75.8759 57.2874 75.9078 56.9403 75.861C56.1312 75.7521 55.3516 75.0284 54.9609 74.0369C54.5702 73.0454 54.5833 71.8597 55.2283 70.9058C55.8755 69.9484 56.6398 69.8137 57.4439 69.9877C58.248 70.1616 59.0333 70.7709 59.3075 71.2375C59.5858 71.7115 59.7335 72.6683 59.8098 73.597C59.8479 74.0613 59.8762 74.5195 59.925 74.9308C59.9738 75.3421 60.0205 75.6983 60.2096 76.0405C60.5194 76.6011 61.135 77.0497 61.8605 76.9312C62.586 76.8128 63.161 76.1404 63.4707 75.0206C64.054 72.9111 65.1346 66.5248 69.5872 63.9603C71.3803 65.7263 73.2891 66.8743 75.3192 67.2697C77.3596 67.6672 79.4929 67.2897 81.6624 66.2077C83.8725 68.4427 85.8528 69.7735 87.6261 70.3283C89.4795 70.9082 91.1345 70.6234 92.396 69.7133C94.9191 67.8929 95.9202 63.8951 95.652 59.7423C95.3837 55.5896 93.8034 51.2073 90.6968 48.5884C87.7089 46.0698 83.2848 45.3613 77.6863 48.0855C76.692 43.425 72.5427 40.7994 68.6602 41.012ZM68.7226 42.1516C72.2329 41.9594 76.1241 44.4152 76.7262 48.9698C76.7383 49.0609 76.7722 49.1477 76.8251 49.2229C76.8779 49.2981 76.9482 49.3594 77.0298 49.4016C77.1115 49.4438 77.2021 49.4656 77.294 49.4653C77.3859 49.4649 77.4764 49.4424 77.5577 49.3995C83.2053 46.4204 87.1945 47.1282 89.9614 49.4607C92.7283 51.7931 94.2602 55.9037 94.513 59.8162C94.7657 63.7286 93.6969 67.3682 91.7288 68.7882C90.7448 69.4981 89.5488 69.7343 87.9673 69.2396C86.3859 68.7448 84.4392 67.4725 82.1902 65.1349C82.1038 65.0452 81.9905 64.9862 81.8675 64.9669C81.7445 64.9476 81.6186 64.969 81.5089 65.028C79.3829 66.1714 77.4166 66.5159 75.5369 66.1498C73.6573 65.7836 71.8344 64.6921 70.0564 62.8423C69.9716 62.754 69.8606 62.6955 69.7398 62.6752C69.6191 62.6549 69.4951 62.6739 69.386 62.7296C63.9609 65.503 62.8892 72.8427 62.3711 74.7162C62.1227 75.6146 61.8088 75.7833 61.6765 75.805C61.5442 75.8266 61.3329 75.7136 61.2086 75.4885C61.1806 75.438 61.1006 75.1584 61.0577 74.7965C61.0147 74.4345 60.9862 73.9821 60.9469 73.5034C60.8682 72.5459 60.7781 71.4876 60.2917 70.6594C59.8008 69.8237 58.8293 69.1203 57.6852 68.8728C56.5411 68.6254 55.1654 68.961 54.2828 70.2665H54.2835C53.3987 71.5752 53.391 73.1646 53.8996 74.4552C54.4081 75.7458 55.4474 76.8112 56.7882 76.9917C57.3174 77.0631 58.0105 77.0642 58.3665 77.1464C58.3362 77.1919 58.3304 77.2146 58.2614 77.289C57.7601 77.8297 56.6779 78.4644 55.5988 78.6127C54.5197 78.7609 53.489 78.5213 52.6905 77.3546C51.271 75.2806 50.752 72.039 50.657 69.0683C50.562 66.0976 50.8639 63.4316 50.9473 62.38C51.167 59.6145 51.976 56.0968 53.6882 53.6512C55.0884 51.6508 57.0919 51.2742 58.8523 51.3758C60.6126 51.4773 62.0235 52.092 62.0235 52.092C62.1156 52.1323 62.2167 52.1476 62.3166 52.1362C62.4164 52.1249 62.5115 52.0874 62.5922 52.0275C62.6729 51.9676 62.7364 51.8874 62.7762 51.7951C62.8159 51.7028 62.8306 51.6016 62.8187 51.5018C62.4314 48.2638 63.0733 45.9841 64.2022 44.4895C65.3311 42.9949 66.9674 42.2477 68.7226 42.1516Z" fill="black"/>
<path fill-rule="evenodd" clip-rule="evenodd" d="M63.2999 73.3219L60.1031 71.7053C60.0258 71.4237 59.9274 71.1662 59.7996 70.9484C59.0345 69.6461 56.2856 68.323 54.7558 70.5859C53.2259 72.8485 54.7144 76.1367 56.8642 76.4261C57.7587 76.5467 59.9068 76.3525 58.6795 77.6769C57.4519 79.001 54.053 80.3555 52.2197 77.6769C49.149 73.1905 50.2172 64.3699 50.3785 62.3351C50.6038 59.5001 51.4122 55.9075 53.221 53.3238C56.2826 48.9498 62.2526 51.5694 62.2526 51.5694C60.6527 38.1933 76.0104 39.2035 77.2915 48.8948C100.425 36.6918 100.105 84.5778 81.7793 65.5307C77.3499 67.9129 73.3166 67.0569 69.6454 63.2374C65.4892 65.3622 64.0073 70.4376 63.2999 73.3219Z" fill="black"/>
<path d="M59.925 71.1636C59.7813 71.2108 59.6622 71.3132 59.5939 71.4482C59.5601 71.515 59.5398 71.5879 59.5341 71.6626C59.5284 71.7373 59.5376 71.8124 59.5609 71.8836C59.5843 71.9547 59.6214 72.0206 59.6702 72.0775C59.719 72.1343 59.7786 72.1809 59.8454 72.2148L67.5027 76.0857C67.5579 76.1136 67.6172 76.1323 67.6784 76.1411L87.5745 79.0093C87.6486 79.0201 87.7242 79.0161 87.7968 78.9976C87.8694 78.9791 87.9377 78.9465 87.9977 78.9016C88.0577 78.8567 88.1083 78.8005 88.1465 78.736C88.1848 78.6716 88.21 78.6003 88.2207 78.5261C88.2314 78.4519 88.2274 78.3764 88.2089 78.3038C88.1904 78.2312 88.1578 78.1629 88.1129 78.1029C88.0681 78.0429 88.0118 77.9923 87.9474 77.954C87.8829 77.9158 87.8116 77.8906 87.7374 77.8799L67.9337 75.0257L60.3605 71.1961C60.2936 71.1623 60.2207 71.1421 60.1459 71.1365C60.0712 71.131 59.9961 71.1402 59.925 71.1636Z" fill="black"/>
<path d="M67.7733 74.9932C67.6985 74.9886 67.6236 74.9988 67.5527 75.0232C67.4819 75.0476 67.4166 75.0858 67.3605 75.1354C67.3043 75.1851 67.2586 75.2453 67.2257 75.3127C67.1929 75.38 67.1737 75.4532 67.1691 75.528C66.999 78.34 67.3699 80.3508 68.1324 81.7037C68.895 83.0567 70.1268 83.7173 71.382 83.636C73.8923 83.4736 76.3379 80.8032 77.1063 76.9554C77.1211 76.8819 77.1212 76.8062 77.1066 76.7326C77.0921 76.659 77.0632 76.589 77.0215 76.5266C76.9799 76.4642 76.9264 76.4107 76.864 76.369C76.8017 76.3273 76.7317 76.2983 76.6581 76.2837C76.5846 76.2691 76.509 76.2691 76.4355 76.2836C76.362 76.2982 76.292 76.3272 76.2297 76.3688C76.1674 76.4104 76.1139 76.4639 76.0723 76.5262C76.0306 76.5885 76.0017 76.6584 75.9871 76.7319C75.2922 80.2108 73.002 82.3881 71.3082 82.4977C70.4613 82.5525 69.7243 82.2046 69.1263 81.1435C68.5282 80.0823 68.1462 78.2732 68.3081 75.5968C68.3172 75.4458 68.266 75.2974 68.1657 75.1843C68.0654 75.0711 67.9243 75.0024 67.7733 74.9932Z" fill="black"/>
<path d="M79.6651 76.7173C79.5165 76.6898 79.363 76.7224 79.2383 76.808C79.1137 76.8936 79.0281 77.0252 79.0005 77.1738C78.5405 79.6555 78.6906 81.3434 79.3634 82.4525C80.0361 83.5615 81.2708 83.9186 82.4461 83.715C83.6215 83.5114 84.8188 82.8402 85.853 81.9323C86.8872 81.0244 87.7578 79.874 88.194 78.6337C88.2441 78.491 88.2355 78.3343 88.1701 78.1979C88.1047 78.0616 87.9878 77.9568 87.8451 77.9066C87.7024 77.8565 87.5457 77.8651 87.4094 77.9305C87.273 77.996 87.1683 78.1129 87.1181 78.2555C86.7685 79.2493 86.0106 80.2757 85.1004 81.0747C84.1903 81.8737 83.1273 82.439 82.252 82.5906C81.3767 82.7422 80.7706 82.5729 80.3387 81.861C79.9069 81.1491 79.6886 79.7218 80.1223 77.382C80.1498 77.2332 80.1171 77.0796 80.0314 76.955C79.9456 76.8303 79.8139 76.7448 79.6651 76.7173Z" fill="black"/>
<path d="M78.2104 76.5136C78.1388 76.4915 78.0635 76.4838 77.9889 76.4908C77.9143 76.4979 77.8418 76.5196 77.7756 76.5546C77.7094 76.5897 77.6507 76.6374 77.603 76.6952C77.5552 76.7529 77.5193 76.8195 77.4973 76.8911C76.2274 81.0226 76.7249 84.3757 78.8865 86.7837C78.9875 86.8963 79.1291 86.9642 79.2801 86.9725C79.4312 86.9807 79.5793 86.9286 79.6919 86.8277C79.7477 86.7776 79.7931 86.7171 79.8255 86.6495C79.8579 86.5818 79.8766 86.5085 79.8806 86.4336C79.8846 86.3588 79.8739 86.2839 79.8489 86.2132C79.824 86.1425 79.7853 86.0774 79.7352 86.0217C77.8593 83.9319 77.3908 81.1213 78.5879 77.2266C78.61 77.155 78.6177 77.0798 78.6106 77.0052C78.6036 76.9306 78.5819 76.8581 78.5469 76.7919C78.5118 76.7257 78.464 76.667 78.4063 76.6192C78.3486 76.5715 78.282 76.5356 78.2104 76.5136Z" fill="black"/>
<path fill-rule="evenodd" clip-rule="evenodd" d="M74.4029 79.0181C74.3425 79.1787 74.2628 79.3302 74.1683 79.4641C74.0739 79.5979 73.9666 79.7114 73.8525 79.7981C73.7384 79.8848 73.6198 79.9431 73.5035 79.9694C73.3872 79.9958 73.2754 79.9898 73.1745 79.9519C73.0736 79.9139 72.9856 79.8447 72.9155 79.7481C72.8455 79.6516 72.7947 79.5297 72.7661 79.3892C72.7375 79.2488 72.7316 79.0927 72.7489 78.9298C72.7661 78.7669 72.8061 78.6004 72.8665 78.4398C72.9886 78.1155 73.1866 77.8349 73.417 77.6598C73.6474 77.4847 73.8912 77.4294 74.095 77.5061C74.2987 77.5828 74.4456 77.7851 74.5034 78.0687C74.5611 78.3523 74.525 78.6938 74.4029 79.0181Z" fill="black"/>
<path fill-rule="evenodd" clip-rule="evenodd" d="M82.5061 80.5313C82.4456 80.6918 82.3659 80.8434 82.2715 80.9772C82.177 81.1111 82.0697 81.2246 81.9556 81.3113C81.8416 81.398 81.723 81.4562 81.6066 81.4826C81.4903 81.509 81.3785 81.503 81.2776 81.465C81.1767 81.4271 81.0887 81.3578 81.0187 81.2613C80.9486 81.1648 80.8978 81.0428 80.8692 80.9024C80.8406 80.762 80.8348 80.6059 80.852 80.443C80.8693 80.2801 80.9092 80.1136 80.9697 79.953C81.0917 79.6287 81.2897 79.3481 81.5201 79.173C81.7505 78.9978 81.9944 78.9425 82.1981 79.0192C82.4019 79.0959 82.5488 79.2983 82.6065 79.5819C82.6643 79.8654 82.6282 80.2069 82.5061 80.5313Z" fill="black"/>
<path d="M82.3678 84.6388C82.2282 84.5807 82.0712 84.5805 81.9314 84.6382C81.7916 84.6959 81.6804 84.8067 81.6223 84.9463C79.1949 90.7851 73.934 95.1387 68.7328 95.9913C66.1323 96.4176 63.5585 95.9903 61.2837 94.4684C59.009 92.9463 57.0151 90.3074 55.6702 86.2247C55.6468 86.1535 55.6095 86.0876 55.5606 86.0308C55.5117 85.974 55.4521 85.9273 55.3852 85.8936C55.3182 85.8598 55.2453 85.8396 55.1706 85.834C55.0958 85.8284 55.0207 85.8377 54.9495 85.8612C54.8058 85.9085 54.6868 86.0109 54.6186 86.1459C54.5504 86.281 54.5387 86.4376 54.5859 86.5813C55.9902 90.8442 58.1232 93.727 60.649 95.417C63.1748 97.1071 66.0752 97.5829 68.9175 97.1169C74.6021 96.185 80.1029 91.5734 82.676 85.3843C82.734 85.2446 82.7341 85.0875 82.6763 84.9477C82.6185 84.8079 82.5076 84.6968 82.3678 84.6388Z" fill="black"/>
<path d="M69.1689 87.7171C69.0336 87.6495 68.8769 87.6384 68.7334 87.6863C68.5899 87.7342 68.4713 87.8371 68.4037 87.9724C68.3702 88.0395 68.3503 88.1125 68.345 88.1872C68.3398 88.262 68.3493 88.337 68.3731 88.4081C68.3968 88.4791 68.4344 88.5448 68.4835 88.6014C68.5327 88.6579 68.5925 88.7043 68.6596 88.7377C68.6596 88.7377 70.4195 89.6219 72.7286 89.666C72.8798 89.6689 73.0259 89.6116 73.1349 89.5068C73.2439 89.402 73.3069 89.2582 73.3099 89.107C73.3113 89.0321 73.298 88.9576 73.2706 88.8878C73.2433 88.8181 73.2024 88.7544 73.1505 88.7004C73.0985 88.6464 73.0364 88.6032 72.9677 88.5732C72.8991 88.5432 72.8252 88.5271 72.7502 88.5257C70.7199 88.4869 69.1689 87.7171 69.1689 87.7171Z" fill="black"/>
<path fill-rule="evenodd" clip-rule="evenodd" d="M38.0334 120.841C36.027 123.459 32.7017 131.065 31.5908 134.089C30.4795 137.112 30.7638 137.629 31.7199 137.861C33.6803 138.338 43.8641 141.892 45.5436 142.383C47.223 142.874 47.1754 143.405 45.9569 144.062C42.3301 146.02 39.8263 149.721 38.0533 152.094C34.6214 156.687 36.6401 158.756 35.3281 158.705C34.0157 158.655 26.1548 157.652 22.3581 156.838C12.2685 154.674 11.5204 147.335 12.1733 141.08C12.8878 134.235 20.5841 120.377 25.4112 112.705C34.7475 97.8679 44.4881 94.879 47.9457 94.0022C51.5112 93.0982 52.7362 93.6377 53.0166 95.3266C54.5924 104.82 60.09 102.561 61.5432 101.625C63.2683 100.513 63.5228 99.1513 65.8311 99.1862C80.533 99.4088 83.0114 116.764 83.6894 120.478C84.3678 124.193 83.7543 124.709 82.6333 124.806C80.9496 124.952 65.0393 125.008 60.6989 125.058C56.3588 125.109 56.3588 125.613 56.056 127.329C55.5071 130.44 55.7656 144.872 55.7656 144.872C54.7319 145.195 52.5677 144.064 49.5642 142.417C46.5603 140.77 40.1007 138.864 36.2249 137.895C32.349 136.926 32.4135 136.248 33.1564 133.083C33.8993 129.917 38.0334 120.841 38.0334 120.841ZM59.0628 106.57C58.0644 106.57 57.254 107.431 57.254 108.492C57.254 109.553 58.0644 110.413 59.0628 110.413C60.061 110.413 60.8713 109.553 60.8713 108.492C60.8713 107.431 60.061 106.57 59.0628 106.57ZM59.0628 117.394C58.333 117.394 57.7403 118.024 57.7403 118.799C57.7403 119.575 58.333 120.204 59.0628 120.204C59.7927 120.204 60.385 119.575 60.385 118.799C60.385 118.024 59.7927 117.394 59.0628 117.394Z" fill="black"/>
<path d="M43.127 143.62C42.9898 143.556 42.8329 143.549 42.6908 143.601C42.5488 143.653 42.4331 143.759 42.3694 143.897C42.3057 144.034 42.299 144.191 42.351 144.333C42.4029 144.475 42.5091 144.59 42.6463 144.654C42.6463 144.654 45.1775 145.83 48.0733 147.4C50.9691 148.97 54.2485 150.979 55.5944 152.431C55.6972 152.542 55.8399 152.608 55.9911 152.613C56.1422 152.619 56.2895 152.565 56.4004 152.462C56.5113 152.359 56.5768 152.216 56.5826 152.065C56.5883 151.914 56.5338 151.767 56.4309 151.656C54.8313 149.93 51.5479 147.986 48.617 146.397C45.6862 144.809 43.127 143.62 43.127 143.62Z" fill="black"/>
<path d="M53.3093 152C53.2384 152.024 53.173 152.062 53.1169 152.112C53.0607 152.161 53.0149 152.222 52.9821 152.289C52.916 152.425 52.9066 152.582 52.9559 152.725C53.0052 152.868 53.1092 152.985 53.245 153.051C53.245 153.051 55.1957 154.04 56.0318 154.89C56.0843 154.944 56.1468 154.986 56.2158 155.016C56.2848 155.045 56.359 155.06 56.434 155.061C56.5089 155.062 56.5833 155.047 56.6528 155.019C56.7223 154.991 56.7856 154.95 56.8391 154.897C56.9469 154.791 57.0081 154.646 57.0093 154.495C57.0105 154.344 56.9515 154.198 56.8454 154.09C55.7295 152.956 53.7448 152.026 53.7448 152.026C53.6089 151.96 53.4523 151.95 53.3093 152Z" fill="black"/>
<path d="M51.8062 153.928C51.6571 153.902 51.5039 153.937 51.3803 154.024C51.2567 154.112 51.1729 154.244 51.1472 154.393C51.1215 154.542 51.1561 154.696 51.2432 154.819C51.3304 154.943 51.463 155.027 51.612 155.052C51.612 155.052 53.7504 155.427 55.7491 156.468C55.8155 156.502 55.8882 156.524 55.9628 156.53C56.0375 156.537 56.1127 156.528 56.1842 156.506C56.2557 156.483 56.322 156.447 56.3795 156.399C56.4369 156.351 56.4842 156.292 56.5188 156.225C56.5886 156.091 56.6022 155.935 56.5567 155.79C56.5113 155.646 56.4104 155.526 56.2763 155.456C54.0829 154.314 51.8062 153.928 51.8062 153.928Z" fill="black"/>
<path d="M35.6767 151.195C35.6169 151.241 35.5666 151.297 35.5287 151.362C35.4907 151.426 35.4659 151.498 35.4555 151.572C35.4452 151.646 35.4496 151.722 35.4684 151.794C35.4872 151.867 35.5202 151.935 35.5653 151.994C35.5653 151.994 36.3025 152.97 37.1914 154.065C38.0802 155.16 39.0727 156.347 39.7928 156.911C40.3905 157.38 40.8717 157.749 41.6436 157.944C42.4155 158.139 43.4156 158.18 45.2205 158.164C48.8084 158.132 52.9902 158.071 56.3642 158.514C56.4385 158.524 56.5141 158.519 56.5865 158.5C56.6589 158.48 56.7268 158.447 56.7863 158.401C56.8458 158.355 56.8957 158.298 56.9332 158.234C56.9707 158.169 56.9949 158.097 57.0047 158.022C57.0144 157.948 57.0094 157.873 56.99 157.8C56.9706 157.728 56.9371 157.66 56.8915 157.601C56.8458 157.541 56.7889 157.491 56.724 157.454C56.6591 157.417 56.5875 157.392 56.5132 157.383C53.0064 156.922 48.7925 156.991 45.2103 157.023C43.4297 157.039 42.4922 156.982 41.9238 156.838C41.3553 156.694 41.0937 156.482 40.4963 156.014C40.0215 155.642 38.952 154.423 38.0776 153.345C37.2032 152.268 36.4758 151.306 36.4758 151.306C36.3845 151.186 36.249 151.106 36.0992 151.085C35.9493 151.065 35.7974 151.104 35.6767 151.195Z" fill="black"/>
<path d="M119.681 78.0193C119.535 77.9791 119.379 77.9983 119.248 78.0728C119.183 78.1097 119.125 78.1591 119.079 78.2182C119.033 78.2773 118.999 78.3449 118.979 78.4172C118.959 78.4894 118.953 78.5649 118.963 78.6393C118.972 78.7137 118.996 78.7856 119.033 78.8508C120.713 81.8127 120.656 84.624 118.787 87.593C118.748 87.6564 118.72 87.7271 118.708 87.801C118.695 87.8749 118.697 87.9506 118.714 88.0236C118.731 88.0967 118.762 88.1658 118.805 88.2269C118.848 88.2881 118.903 88.34 118.967 88.3799C119.095 88.4604 119.25 88.4867 119.397 88.4532C119.545 88.4196 119.673 88.3289 119.753 88.201C121.798 84.9516 121.873 81.5438 120.025 78.2873C119.95 78.1559 119.827 78.0595 119.681 78.0193Z" fill="black"/>
<path d="M117.643 80.4749C117.497 80.516 117.374 80.6132 117.3 80.7451C117.226 80.877 117.208 81.0329 117.249 81.1784C117.441 81.859 117.438 82.3901 117.345 82.7332C117.253 83.0763 117.102 83.2222 116.93 83.2903C116.757 83.3583 116.497 83.3593 116.132 83.1661C115.766 82.9729 115.321 82.5815 114.884 81.9424C114.799 81.8175 114.667 81.7316 114.519 81.7035C114.37 81.6754 114.216 81.7076 114.091 81.7928C113.966 81.8781 113.88 82.0095 113.852 82.1582C113.824 82.3068 113.857 82.4605 113.942 82.5855C114.458 83.3406 115.018 83.8683 115.598 84.1753C116.179 84.4822 116.806 84.5651 117.348 84.3516C117.89 84.1381 118.282 83.6391 118.447 83.0312C118.611 82.4232 118.581 81.6961 118.347 80.8684C118.306 80.7228 118.208 80.5996 118.076 80.5258C117.944 80.4521 117.788 80.4337 117.643 80.4749Z" fill="black"/>
<path d="M126.793 76.4945C126.721 76.5143 126.653 76.5483 126.594 76.5943C126.535 76.6403 126.485 76.6975 126.448 76.7627C126.411 76.8279 126.388 76.8997 126.378 76.974C126.369 77.0484 126.375 77.1238 126.394 77.1961C126.786 78.6181 126.391 79.632 125.949 79.9376C125.728 80.0904 125.499 80.1337 125.151 80.0019C124.803 79.8701 124.344 79.5201 123.874 78.8393C123.789 78.7148 123.657 78.6295 123.508 78.6022C123.359 78.5748 123.206 78.6077 123.081 78.6935C123.019 78.7361 122.967 78.7903 122.926 78.8533C122.885 78.9162 122.857 78.9865 122.844 79.0603C122.83 79.134 122.831 79.2097 122.847 79.283C122.863 79.3563 122.893 79.4258 122.935 79.4875C123.496 80.2995 124.103 80.825 124.747 81.069C125.392 81.3129 126.082 81.2317 126.597 80.876C127.627 80.1647 127.972 78.6267 127.495 76.893C127.475 76.8208 127.441 76.7531 127.395 76.694C127.349 76.6349 127.292 76.5854 127.226 76.5484C127.161 76.5114 127.089 76.4876 127.015 76.4783C126.941 76.469 126.865 76.4745 126.793 76.4945Z" fill="black"/>
<path d="M129.285 88.264C129.156 88.1848 129.001 88.16 128.854 88.195C128.707 88.23 128.58 88.3219 128.501 88.4506C127.609 89.897 126.666 91.0461 125.689 91.6505C124.712 92.2548 123.741 92.3869 122.454 91.7969C122.386 91.7657 122.312 91.7482 122.237 91.7454C122.163 91.7426 122.088 91.7546 122.018 91.7807C121.947 91.8067 121.883 91.8464 121.828 91.8973C121.773 91.9483 121.729 92.0096 121.698 92.0777C121.666 92.1458 121.649 92.2194 121.646 92.2943C121.643 92.3691 121.655 92.4438 121.681 92.514C121.707 92.5843 121.747 92.6487 121.798 92.7036C121.849 92.7585 121.91 92.8028 121.978 92.8341C123.552 93.5552 125.053 93.3859 126.289 92.6208C127.526 91.8557 128.536 90.567 129.471 89.049C129.511 88.9853 129.537 88.9144 129.549 88.8404C129.561 88.7664 129.558 88.6908 129.541 88.6179C129.523 88.545 129.492 88.4762 129.448 88.4155C129.404 88.3548 129.349 88.3033 129.285 88.264Z" fill="black"/>
<path d="M136.191 90.4854C136.049 90.4335 135.892 90.4401 135.755 90.5039C135.618 90.5676 135.511 90.6833 135.459 90.8254C134.894 92.3729 133.613 94.0513 132.045 95.1993C130.477 96.3473 128.659 96.9563 126.983 96.5694C124.86 96.0795 122.806 97.0136 120.942 98.5068C119.078 100 117.342 102.082 115.747 104.117C109.576 111.99 105.715 123.212 105.715 123.212C105.691 123.283 105.68 123.357 105.685 123.432C105.689 123.507 105.708 123.58 105.741 123.648C105.774 123.715 105.82 123.775 105.876 123.825C105.932 123.875 105.997 123.913 106.068 123.938C106.139 123.962 106.214 123.972 106.289 123.968C106.363 123.963 106.437 123.944 106.504 123.912C106.571 123.879 106.632 123.833 106.681 123.777C106.731 123.721 106.769 123.656 106.794 123.585C106.794 123.585 110.658 112.46 116.644 104.821C118.223 102.807 119.927 100.781 121.655 99.3969C123.383 98.0126 125.071 97.299 126.726 97.6811C128.828 98.1662 130.968 97.4024 132.719 96.1199C134.47 94.8375 135.869 93.0283 136.531 91.2169C136.583 91.0748 136.576 90.9179 136.512 90.7807C136.449 90.6436 136.333 90.5373 136.191 90.4854Z" fill="black"/>
<path d="M126.45 101.37C126.375 101.376 126.302 101.396 126.235 101.43C126.168 101.463 126.109 101.51 126.06 101.567C126.011 101.624 125.974 101.689 125.95 101.761C125.927 101.832 125.918 101.907 125.923 101.982C127.051 117.019 126.486 131.143 120.298 142.352C120.262 142.418 120.239 142.49 120.231 142.564C120.222 142.639 120.229 142.714 120.249 142.786C120.27 142.858 120.305 142.925 120.352 142.984C120.398 143.042 120.456 143.091 120.522 143.127C120.587 143.164 120.66 143.187 120.734 143.195C120.809 143.203 120.884 143.197 120.956 143.176C121.028 143.155 121.095 143.121 121.154 143.074C121.212 143.027 121.261 142.969 121.297 142.903C127.666 131.367 128.195 117.015 127.061 101.896C127.05 101.746 126.979 101.605 126.865 101.507C126.75 101.408 126.601 101.359 126.45 101.37Z" fill="black"/>
<path d="M149.226 94.7129C148.379 94.7103 147.539 94.8529 146.672 95.1172C144.804 95.6864 143.189 97.3095 141.538 98.9792C139.886 100.649 138.207 102.386 136.472 103.286C133.715 104.716 132 104.136 130.834 103.256C129.668 102.377 129.135 101.146 129.135 101.146C129.106 101.077 129.064 101.014 129.01 100.962C128.957 100.909 128.894 100.867 128.824 100.839C128.755 100.811 128.68 100.797 128.605 100.798C128.53 100.798 128.456 100.814 128.387 100.843C128.318 100.872 128.256 100.915 128.203 100.968C128.151 101.021 128.109 101.085 128.081 101.154C128.053 101.224 128.039 101.298 128.039 101.373C128.04 101.448 128.055 101.522 128.085 101.591C128.085 101.591 128.706 103.081 130.147 104.168C131.588 105.254 133.936 105.886 136.998 104.298C138.989 103.265 140.707 101.442 142.349 99.7821C143.99 98.1226 145.565 96.6472 147.004 96.2085C148.576 95.7295 149.857 95.6962 151.44 96.2562C153.022 96.8162 154.905 98.0113 157.479 100.03C162.981 104.346 172.802 111.494 178.063 129.866C179.403 134.544 178.984 139.728 177.726 144.16C176.467 148.591 174.336 152.273 172.482 153.88C172.482 153.88 172.482 153.88 172.481 153.88C171.291 154.911 169.023 157.097 164.724 158.396C160.425 159.694 154.108 160.082 144.92 157.283C144.891 157.274 144.871 157.252 144.865 157.223C144.858 157.194 144.867 157.166 144.89 157.145C144.892 157.143 144.894 157.141 144.896 157.139C145.794 156.308 147.097 154.826 147.819 152.703C148.542 150.58 148.657 147.817 147.228 144.555C147.219 144.535 147.219 144.513 147.228 144.492C147.236 144.474 147.251 144.464 147.267 144.456C149.06 143.998 154.525 143.005 164.162 144.678C164.236 144.691 164.311 144.689 164.384 144.672C164.458 144.656 164.527 144.625 164.588 144.582C164.649 144.539 164.701 144.484 164.741 144.421C164.782 144.357 164.809 144.287 164.821 144.213C164.834 144.139 164.832 144.064 164.816 143.99C164.8 143.917 164.769 143.848 164.726 143.787C164.683 143.726 164.628 143.674 164.564 143.634C164.501 143.593 164.431 143.566 164.357 143.553C154.531 141.848 148.875 142.86 146.947 143.357C146.934 143.361 146.92 143.365 146.906 143.37C146.583 143.48 146.322 143.721 146.184 144.032C146.184 144.032 146.184 144.032 146.183 144.033C146.047 144.344 146.046 144.7 146.183 145.012C147.51 148.041 147.378 150.457 146.739 152.336C146.099 154.214 144.925 155.557 144.121 156.302L144.127 156.297C143.8 156.59 143.655 157.04 143.751 157.47C143.846 157.899 144.167 158.246 144.588 158.374C153.943 161.224 160.518 160.858 165.054 159.488C169.59 158.118 172.101 155.719 173.229 154.742C175.393 152.866 177.519 149.063 178.823 144.472C180.127 139.88 180.578 134.504 179.16 129.552C173.816 110.892 163.65 103.42 158.183 99.1321C155.57 97.0827 153.611 95.8146 151.821 95.1809C150.925 94.864 150.072 94.7156 149.226 94.7129Z" fill="black"/>
<path d="M130.335 144.789C130.335 144.789 124.288 144.393 120.669 149.211C119.877 150.265 119.194 151.414 118.837 152.437C118.658 152.949 118.553 153.43 118.6 153.899C118.647 154.369 118.926 154.863 119.397 155.076C119.398 155.076 119.398 155.076 119.398 155.076C120.055 155.373 120.803 155.2 121.539 154.786C122.274 154.371 123.075 153.696 124.012 152.771C127.897 148.938 131.138 147.82 133.78 147.974C133.855 147.978 133.93 147.968 134.001 147.943C134.071 147.919 134.137 147.88 134.193 147.83C134.249 147.781 134.294 147.72 134.327 147.653C134.36 147.585 134.379 147.512 134.383 147.437C134.392 147.286 134.34 147.138 134.239 147.025C134.139 146.912 133.997 146.844 133.846 146.835C130.825 146.658 127.244 147.979 123.211 151.959C122.31 152.848 121.555 153.467 120.978 153.792C120.401 154.117 120.08 154.132 119.868 154.036C119.767 153.991 119.755 153.984 119.735 153.786C119.715 153.587 119.767 153.233 119.914 152.813C120.206 151.974 120.842 150.881 121.581 149.897C124.815 145.592 130.263 145.927 130.263 145.927C130.338 145.932 130.413 145.922 130.484 145.897C130.555 145.873 130.62 145.835 130.676 145.786C130.732 145.736 130.778 145.676 130.811 145.609C130.844 145.541 130.864 145.468 130.868 145.393C130.878 145.242 130.827 145.094 130.727 144.981C130.627 144.867 130.486 144.798 130.335 144.789Z" fill="black"/>
<path d="M133.999 150.063C132.738 150.103 131.221 150.478 129.811 151.028C128.402 151.577 127.115 152.281 126.326 153.119C125.7 153.783 125.168 154.075 124.787 154.161C124.407 154.247 124.17 154.165 123.958 153.994C123.987 154.017 123.947 153.986 123.927 153.857C123.906 153.729 123.908 153.535 123.928 153.344C123.968 152.963 124.068 152.614 124.068 152.614C124.11 152.469 124.093 152.313 124.02 152.18C123.947 152.047 123.824 151.949 123.679 151.907C123.534 151.865 123.378 151.882 123.245 151.955C123.113 152.028 123.014 152.151 122.972 152.296C122.972 152.296 122.846 152.722 122.793 153.225C122.767 153.476 122.755 153.751 122.799 154.034C122.843 154.317 122.945 154.641 123.238 154.879C123.698 155.253 124.354 155.428 125.038 155.274C125.722 155.12 126.426 154.676 127.156 153.901C127.723 153.3 128.915 152.602 130.226 152.091C131.537 151.58 132.979 151.236 134.034 151.203C134.035 151.203 134.035 151.203 134.035 151.203C135.007 151.172 135.527 151.31 136.097 151.657C136.666 152.004 137.293 152.615 138.258 153.514C139.366 154.545 140.965 154.953 142.635 154.855C144.306 154.757 146.07 154.154 147.582 153.069C147.705 152.981 147.787 152.848 147.812 152.698C147.837 152.549 147.801 152.396 147.713 152.273C147.669 152.212 147.614 152.161 147.55 152.121C147.487 152.081 147.416 152.055 147.342 152.043C147.268 152.03 147.192 152.033 147.119 152.05C147.046 152.067 146.977 152.098 146.916 152.142C145.586 153.097 144.009 153.632 142.568 153.716C141.128 153.8 139.846 153.434 139.036 152.68C138.083 151.792 137.436 151.138 136.691 150.684C135.945 150.229 135.11 150.027 133.999 150.063Z" fill="black"/>
<path d="M132.329 140.679C129.372 140.712 126.336 141.28 123.867 142.467C121.767 143.477 119.738 145.015 118.157 146.604C116.575 148.193 115.424 149.783 115.157 151.167C114.911 152.437 115.186 153.581 116.003 154.23C116.82 154.878 118.029 154.932 119.373 154.432C119.515 154.379 119.63 154.272 119.693 154.134C119.756 153.997 119.761 153.84 119.709 153.698C119.683 153.628 119.643 153.564 119.592 153.509C119.541 153.454 119.479 153.409 119.411 153.378C119.343 153.347 119.269 153.33 119.195 153.327C119.12 153.324 119.045 153.336 118.975 153.363C117.859 153.778 117.119 153.659 116.713 153.336C116.306 153.013 116.082 152.388 116.276 151.384C116.448 150.494 117.47 148.911 118.966 147.409C120.461 145.906 122.412 144.433 124.361 143.495C128.881 141.322 135.987 141.43 139.851 143.149C143.981 144.987 146.666 145.497 146.666 145.497C146.739 145.51 146.815 145.51 146.888 145.494C146.962 145.479 147.031 145.449 147.093 145.407C147.155 145.365 147.208 145.311 147.249 145.248C147.29 145.185 147.318 145.115 147.332 145.041C147.36 144.893 147.328 144.739 147.242 144.614C147.157 144.489 147.026 144.403 146.877 144.375C146.877 144.375 144.35 143.902 140.315 142.107C138.164 141.15 135.286 140.646 132.329 140.679Z" fill="black"/>
<path d="M154.936 112.317C154.864 112.335 154.795 112.367 154.735 112.411C154.674 112.455 154.623 112.511 154.584 112.575C154.545 112.639 154.519 112.71 154.508 112.784C154.496 112.858 154.5 112.934 154.517 113.006C155.642 117.613 155.914 124.09 156.559 130.034C157.205 135.977 158.152 141.428 161.064 144.105C161.175 144.207 161.323 144.261 161.474 144.255C161.625 144.249 161.767 144.182 161.87 144.071C161.92 144.016 161.96 143.951 161.985 143.881C162.011 143.811 162.023 143.736 162.02 143.661C162.016 143.586 161.998 143.513 161.967 143.445C161.935 143.377 161.891 143.316 161.835 143.265C159.427 141.051 158.333 135.798 157.694 129.91C157.054 124.022 156.798 117.538 155.626 112.736C155.608 112.663 155.576 112.595 155.532 112.534C155.488 112.474 155.432 112.422 155.368 112.384C155.304 112.345 155.233 112.319 155.159 112.307C155.085 112.296 155.009 112.299 154.936 112.317Z" fill="black"/>
<path d="M122.798 68.9149C122.679 68.9284 122.567 68.9794 122.478 69.0606C122.389 69.1418 122.328 69.249 122.304 69.3669C122.304 69.3669 121.817 71.7325 120.214 74.1744C118.61 76.6164 115.959 79.0825 111.506 79.3608C111.425 79.3659 111.346 79.3882 111.274 79.4263C111.202 79.4644 111.14 79.5173 111.09 79.5815C111.041 79.6457 111.005 79.7198 110.987 79.7988C110.968 79.8778 110.966 79.9598 110.982 80.0395C110.982 80.0395 113.798 94.5996 126.551 97.6441C126.624 97.6616 126.7 97.6644 126.774 97.6526C126.848 97.6408 126.919 97.6145 126.982 97.5753C127.046 97.536 127.102 97.4846 127.146 97.4238C127.19 97.3631 127.221 97.2943 127.239 97.2214C127.274 97.0742 127.249 96.9192 127.169 96.7904C127.09 96.6615 126.963 96.5695 126.816 96.5344C115.629 93.8638 112.632 82.0328 112.265 80.4106C116.701 79.8971 119.522 77.307 121.167 74.8009C122.181 73.2566 122.702 71.9282 123.025 70.9331C124.992 74.5514 127.505 76.635 129.641 77.708C132.022 78.9036 133.945 78.9743 133.945 78.9743C134.042 78.9776 134.138 78.9562 134.225 78.9121C134.311 78.868 134.385 78.8026 134.439 78.7221C134.493 78.6417 134.525 78.5488 134.533 78.4522C134.542 78.3556 134.525 78.2586 134.485 78.1702C134.286 77.7265 134.207 76.912 134.315 76.0622C134.424 75.2124 134.705 74.3221 135.088 73.6835C135.471 73.045 135.908 72.7103 136.33 72.6897C136.752 72.6691 137.382 72.9456 138.19 74.0337C139.653 76.005 139.172 77.7659 138.315 79.2048C137.459 80.6436 136.212 81.6057 136.212 81.6057C136.133 81.6659 136.072 81.7455 136.033 81.8368C135.836 82.3019 135.826 82.8455 135.848 83.5927C135.871 84.34 135.968 85.2455 136.149 86.212C136.513 88.145 137.203 90.3182 138.406 91.8931C140.017 94.0019 142.62 94.9622 144.79 95.4298C146.959 95.8973 148.752 95.864 148.752 95.864C148.827 95.8627 148.901 95.8466 148.97 95.8167C149.039 95.7868 149.101 95.7436 149.153 95.6897C149.205 95.6358 149.246 95.5722 149.273 95.5024C149.301 95.4327 149.314 95.3583 149.313 95.2834C149.311 95.2084 149.295 95.1345 149.265 95.0658C149.236 94.9971 149.192 94.935 149.138 94.8829C149.085 94.8309 149.021 94.79 148.951 94.7626C148.881 94.7351 148.807 94.7217 148.732 94.7231C148.732 94.7231 147.063 94.7524 145.03 94.3143C142.998 93.8762 140.66 92.9631 139.313 91.2004C138.296 89.8685 137.613 87.8223 137.271 86.0006C137.099 85.0898 137.009 84.2343 136.989 83.5584C136.969 82.9225 137.047 82.4657 137.078 82.357C137.323 82.162 138.41 81.2773 139.296 79.7886C140.286 78.125 140.85 75.7033 139.106 73.3537C138.182 72.108 137.225 71.5036 136.274 71.5501C135.323 71.5965 134.601 72.2775 134.11 73.0972C133.618 73.9169 133.31 74.9278 133.184 75.9176C133.103 76.552 133.131 77.1533 133.224 77.7213C132.565 77.6206 131.579 77.4042 130.153 76.688C127.972 75.5924 125.307 73.4688 123.382 69.2447C123.332 69.1352 123.248 69.0444 123.144 68.9851C123.039 68.9259 122.918 68.9013 122.798 68.9149Z" fill="black"/>
<path d="M134.523 48.9144C133.46 48.8676 132.335 48.905 131.145 49.029C126.463 49.5169 123.761 51.918 122.299 54.1816C121.246 55.8116 120.903 57.0884 120.74 57.8437C117.3 55.9407 114.361 55.3688 111.927 55.8859C109.331 56.4377 107.356 58.1598 105.936 60.393C103.094 64.8593 102.302 71.4059 102.664 75.9348C103.362 84.6579 101.124 86.5048 99.6968 89.3069C99.6966 89.3069 99.6964 89.3069 99.6962 89.3069C98.9889 90.6954 98.1251 92.899 98.0262 95.4992C97.9273 98.0994 98.6166 101.1 100.977 103.959C105.775 109.771 114.349 107.765 114.349 107.765C114.496 107.732 114.624 107.641 114.705 107.513C114.785 107.385 114.811 107.23 114.778 107.082C114.744 106.935 114.653 106.807 114.525 106.726C114.397 106.646 114.242 106.619 114.095 106.653C114.095 106.653 106.141 108.422 101.856 103.232C99.6739 100.59 99.0763 97.9132 99.1665 95.5425C99.2567 93.1718 100.058 91.111 100.713 89.8245C102.011 87.2773 104.517 84.784 103.801 75.8438C103.457 71.5413 104.282 65.1184 106.898 61.0054C108.207 58.9489 109.922 57.4785 112.164 57.002C114.407 56.5255 117.248 57.0356 120.833 59.1705C120.914 59.2189 121.007 59.2463 121.101 59.2503C121.196 59.2542 121.29 59.2346 121.375 59.1932C121.46 59.1518 121.533 59.0898 121.588 59.013C121.644 58.9361 121.679 58.8467 121.691 58.7529C121.691 58.7529 121.938 56.8436 123.258 54.8004C124.577 52.7573 126.915 50.6167 131.264 50.1635C135.827 49.6881 139.193 50.5223 141.866 52.4715C144.54 54.4207 146.545 57.5344 148.213 61.7058C149.889 65.8987 150.883 69.6009 152.889 72.5375C154.895 75.4741 157.952 77.5568 163.454 78.3962C165.2 78.6624 168.45 79.7338 170.975 81.7687C173.5 83.8035 175.331 86.7064 174.561 90.9183C173.788 95.1543 171.235 97.5781 168.196 98.9047C165.157 100.231 161.622 100.395 159.13 99.9584C158.981 99.9324 158.828 99.9665 158.704 100.053C158.58 100.14 158.496 100.273 158.47 100.422C158.444 100.571 158.478 100.724 158.565 100.848C158.652 100.972 158.785 101.056 158.934 101.082C161.648 101.557 165.352 101.391 168.652 99.9502C171.953 98.5094 174.843 95.7272 175.684 91.1233C176.529 86.4951 174.43 83.0881 171.691 80.8805C168.952 78.6731 165.603 77.5701 163.627 77.2686H163.626C158.333 76.4611 155.681 74.6014 153.831 71.8938C151.982 69.1861 150.975 65.5421 149.272 61.2818C147.56 56.9999 145.459 53.6787 142.539 51.5496C140.349 49.9527 137.712 49.0546 134.523 48.9144Z" fill="black"/>
<path fill-rule="evenodd" clip-rule="evenodd" d="M114.221 107.209C114.221 107.209 105.958 109.096 101.416 103.595C96.8743 98.0945 98.8422 92.2406 100.205 89.5656C101.567 86.891 103.939 84.7209 103.233 75.8892C102.526 67.0579 106.466 49.9496 121.125 58.6803C121.125 58.6803 122.174 50.5373 131.205 49.5962C140.527 48.6248 145.363 53.0405 148.742 61.4938C152.122 69.947 152.744 76.1855 163.54 77.8324C167.262 78.3999 176.737 82.1809 175.122 91.0211C173.508 99.861 164.238 101.431 159.032 100.52C158.612 100.191 158.211 99.8782 157.831 99.5806C153.676 96.3215 151.246 95.1232 148.742 95.2937C148.742 95.2937 141.817 95.4182 138.86 91.5466C136.639 88.6398 136.114 83.1087 136.558 82.059C136.558 82.059 141.855 78.0146 138.648 73.6938C135.184 69.0261 132.875 75.9818 133.965 78.4042C133.965 78.4042 126.819 78.162 122.862 69.4815C122.862 69.4815 120.844 79.3488 111.542 79.93C111.542 79.93 114.313 94.1361 126.684 97.0892C122.964 96.3792 119.322 100.481 116.196 104.469C115.508 105.346 114.85 106.266 114.221 107.209Z" fill="black"/>
<path d="M114.222 51.0549C112.675 50.9383 110.932 51.3805 109 52.5218C108.87 52.5987 108.776 52.7242 108.738 52.8707C108.7 53.0172 108.722 53.1727 108.799 53.303C108.876 53.4333 109.002 53.5276 109.148 53.5654C109.295 53.6031 109.45 53.5811 109.581 53.5042C111.366 52.4494 112.867 52.097 114.137 52.1926C115.406 52.2883 116.472 52.8277 117.405 53.6767C119.269 55.3747 120.512 58.3432 121.172 60.9832C121.19 61.0559 121.222 61.1243 121.267 61.1845C121.311 61.2448 121.368 61.2956 121.432 61.3341C121.496 61.3727 121.567 61.3982 121.641 61.4092C121.716 61.4202 121.791 61.4165 121.864 61.3983C122.011 61.3616 122.137 61.2682 122.215 61.1385C122.292 61.0089 122.316 60.8536 122.279 60.7069C121.588 57.9418 120.33 54.798 118.173 52.8331C117.094 51.8507 115.77 51.1715 114.222 51.0549Z" fill="black"/>
</g>
</g>
<defs>
<clipPath id="clip0_255_2">
<rect width="200" height="200" fill="white"/>
</clipPath>
<clipPath id="clip1_255_2">
<rect width="199.731" height="142.912" fill="white" transform="translate(12.0959 40.768)"/>
</clipPath>
</defs>
</svg>
